<?xml version="1.0" encoding="UTF-8"?>
<svg id="_레이어_2" data-name="레이어 2" xmlns="http://www.w3.org/2000/svg" viewBox="0 0 231.63 229.86">
  <g id="_레이어_1-2" data-name="레이어 1">
    <g>
      <path d="M231.63,187.74c0,23.29-18.86,42.12-42.12,42.12H42.11c-23.25,0-42.11-18.83-42.11-42.12V42.09C0,18.83,18.86,0,42.11,0H189.51c23.26,0,42.12,18.83,42.12,42.09V187.74Z" style="fill: #36b44a;"/>
      <path d="M181.29,18.86H46.88c-17.15,0-31.02,13.97-31.02,31.15V123.9c0,17.19,13.87,31.13,31.02,31.13h46.31l15.8,25.71s.16,.32,.5,.74c.93,1.59,2.64,2.66,4.6,2.66s3.64-1.08,4.57-2.63c.4-.46,.54-.78,.54-.78l15.78-25.71h46.3c17.14,0,31.05-13.94,31.05-31.13V50.01c0-17.19-13.91-31.15-31.05-31.15" style="fill: #fff;"/>
      <path d="M59.5,73s-5.37,0-10.25,4.76v-19.09h-12.01v50.1h12.14v-3.93s2.87,5.19,10.11,5.19c0,0,16.94-.64,16.94-18.74,0,0-.62-18.3-16.94-18.3m-2.66,26.43c-4.27,0-7.72-3.45-7.72-7.71s3.45-7.73,7.72-7.73,7.73,3.45,7.73,7.73-3.46,7.71-7.73,7.71" style="fill: #f47626;"/>
      <path d="M80.31,57.52v11.61s5.47-.25,5.47,9.99v29.65h11.6v-32.4s.5-18.85-17.07-18.85" style="fill: #f47626;"/>
      <path d="M125.73,73.17s-19.88,0-19.88,18.55c0,0-.63,18.32,19.88,18.32,0,0,20.33-.03,20.33-18.32,0,0,.67-18.55-20.33-18.55m0,26.26c-4.28,0-7.73-3.45-7.73-7.71s3.44-7.73,7.73-7.73,7.72,3.45,7.72,7.73-3.45,7.71-7.72,7.71" style="fill: #f47626;"/>
      <path d="M179.25,74.34v3.42s-3.46-4.59-10.1-4.59c0,0-17.01-.74-17.01,18.41,0,0-.18,17.85,16.54,17.85,0,0,6.82,.27,10.57-4.59v2.81s.85,8.79-7.66,8.79h-2.91v10.65h4.69s17.58,.19,17.58-18.78v-33.98h-11.7Zm-7.19,25.09c-4.26,0-7.73-3.45-7.73-7.71s3.47-7.73,7.73-7.73,7.72,3.45,7.72,7.73-3.45,7.71-7.72,7.71" style="fill: #f47626;"/>
    </g>
  </g>
</svg>