<?xml version="1.0" encoding="UTF-8"?>
<svg id="_레이어_2" data-name="레이어 2" xmlns="http://www.w3.org/2000/svg" viewBox="0 0 921.26 350.13">
  <g id="Layer_1" data-name="Layer 1">
    <g>
      <path d="M878.51,24.38c0,12.24,9.78,21.38,21.45,21.38s21.3-9.14,21.3-21.38-9.74-21.12-21.3-21.12-21.45,9.14-21.45,21.12m3.85,0c0-10.18,7.62-18,17.6-18s17.43,7.82,17.43,18-7.63,18.25-17.43,18.25-17.6-7.82-17.6-18.25m9.27,12.52h3.85v-10.69h4.08l6.81,10.69h4.13l-7.08-10.97c3.66-.39,6.51-2.28,6.51-6.76,0-4.78-2.8-7.13-8.68-7.13h-9.62v24.86Zm3.85-21.72h5.14c2.6,0,5.45,.52,5.45,3.8,0,3.94-3.12,4.1-6.53,4.1h-4.07v-7.9Z" style="fill: #221e1f; fill-rule: evenodd;"/>
      <path d="M113.39,74.81c-25.84-7.09-51.93-9.86-52.98-22.76,0-10.12,12.55-12.14,20.24-12.14,5.63,0,12.01,1.29,16.61,4.59,4.61,3.02,7.67,7.55,6.68,14.38h53.23C155.62,14.92,120.55,0,80.91,0S7.2,17.95,7.2,59.61c0,36.41,33.04,44.23,61.93,52.3,31.47,8.85,39.4,11.39,39.4,20.74,0,13.39-14.05,16.42-23.29,16.42-10.46,0-22.77-2.27-26.85-13.12-1.29-3.3-2.06-7.35-2.06-11.88H.02c.54,57.6,59.64,64.93,80.37,64.93,40.67,0,84.44-15.16,84.44-62.14,0-33.12-25.58-45-51.43-52.05" style="fill: #ed1b23;"/>
      <path d="M261.79,0c-55.53,0-92.65,39.42-92.65,94.51s37.12,94.49,92.65,94.49,92.63-39.42,92.63-94.49S317.32,0,261.79,0m0,144.05c-14.32,0-36.35-9.37-36.35-49.54s22.03-49.54,36.35-49.54,36.32,9.35,36.32,49.54-22.02,49.54-36.32,49.54" style="fill: #ed1b23;"/>
      <polyline points="477.44 100.79 476.93 100.79 423.71 4.3 366.16 4.3 366.16 184.7 419.35 184.7 419.35 86.16 419.87 86.16 475.89 184.7 530.69 184.7 530.69 4.3 477.44 4.3" style="fill: #ed1b23;"/>
      <path d="M819.44,89.17L878.02,4.31h-62.42l-27.14,49-27.6-49h-66.01l60.07,84.37-45.8,66.69L653.41,4.31h-55.06l-67.28,180.41h56.54l8.19-25.79h58.09l7.69,25.79h91.81l32.27-53.83,31.21,53.83h67.8m-276.58-64.45l17.65-55.59h.52l16.35,55.59h-34.52Z" style="fill: #ed1b23;"/>
      <path d="M78.53,266.69c-5.92-7.28-14.97-11.65-24.16-11.65-20.47,0-32.23,18.9-32.23,37.78s12.18,36.94,32.12,36.94c9.16,0,18.35-4.8,24.27-11.64v25.43c-8,3.82-15.98,6.58-24.86,6.58-30.82,0-53.67-26.62-53.67-56.85s21.97-58.61,54.09-58.61c8.59,0,17.04,2.33,24.44,6.43" style="fill: #221e1f;"/>
      <path d="M156.25,324.1l-9.01,23.11h-22.56l42.75-112.54h16.58l41.56,112.54h-22.82l-8.42-23.11m-19.64-57.29h-.28l-12.06,39.86h26l-13.66-39.86Z" style="fill: #221e1f;"/>
      <path d="M345.93,347.21h-25.89l-26.64-44.18h-.28v44.18h-21.36v-109.62h28.94c21.64,0,36.62,9.6,36.62,33.02,0,13.91-7.7,27.9-22.39,30.38m-21.81-12.96h2.76c11.79,0,20.08-3.51,20.08-16.84s-8.57-16.14-19.92-16.14h-2.92v32.98Z" style="fill: #221e1f;"/>
      <path d="M516.76,266.69c-5.98-7.28-15-11.65-24.16-11.65-20.5,0-32.27,18.9-32.27,37.78s12.23,36.94,32.1,36.94c9.19,0,18.35-4.8,24.32-11.64v25.43c-8,3.82-16,6.58-24.87,6.58-30.82,0-53.64-26.62-53.64-56.85s21.95-58.61,54.07-58.61c8.59,0,16.99,2.33,24.44,6.43" style="fill: #221e1f;"/>
      <path d="M594.46,324.1l-9.01,23.11h-22.56l42.75-112.54h16.58l41.59,112.54h-22.85l-8.42-23.11m-19.64-57.29h-.26l-12.06,39.86h26l-13.68-39.86Z" style="fill: #221e1f;"/>
      <path d="M783.73,347.21h-25.88l-26.59-44.18h-.3v44.18h-21.35v-109.62h28.92c21.69,0,36.62,9.6,36.62,33.02,0,13.91-7.68,27.9-22.36,30.38m-21.84-12.96h2.76c11.8,0,20.07-3.51,20.07-16.84s-8.57-16.14-19.9-16.14h-2.94v32.98Z" style="fill: #221e1f;"/>
      <polyline points="851.27 256.2 851.27 280.34 885.3 280.34 885.3 298.94 851.27 298.94 851.27 328.58 886.62 328.58 886.62 347.21 829.89 347.21 829.89 237.59 886.62 237.59 886.62 256.2" style="fill: #221e1f;"/>
    </g>
  </g>
</svg>