<?xml version="1.0" encoding="UTF-8"?>
<svg xmlns="http://www.w3.org/2000/svg" viewBox="0 0 110.22 118.7">
  <g style="isolation: isolate;">
    <g id="_레이어_2" data-name="레이어 2">
      <g id="_레이어_1-2" data-name="레이어 1">
        <g>
          <g>
            <path d="M62.48,84.1s-40.9-9.78-32.79-32.57c0,0,8.74-25.92,39.55-25.5,0,0,12.49-.83,20.82,6.66,0,0-4.16-22.01-27.69-30.08,0,0,5.2,4.38-1.67,4.69,0,0-27.27-1.25-42.46,7.91,0,0-8.55,5.08-12.7,20.4-.99,3.65-.97,10.99-.1,15.72,0,0,3.65,27.48,33.41,34.24,0,0,12.9,2.91,23.62-1.46Z" style="fill: #f8b62d;"/>
            <path d="M62.48,84.1s-40.9-9.78-32.79-32.57c0,0,8.74-25.92,39.55-25.5,0,0,12.49-.83,20.82,6.66,0,0-4.16-22.01-27.69-30.08,0,0,5.2,4.38-1.67,4.69,0,0-27.27-1.25-42.46,7.91,0,0-8.55,5.08-12.7,20.4-.99,3.65-.97,10.99-.1,15.72,0,0,3.65,27.48,33.41,34.24,0,0,12.9,2.91,23.62-1.46Z" style="fill: #f8b62d;"/>
            <path d="M57.92,82.78c.52-.58,.71-.97,.71-.97,2.6-4.58-28.31-18.52-28.31-18.52-.22-.12-.42-.23-.63-.35,4.25,10.91,20.27,17.29,28.23,19.85Z" style="fill: none;"/>
            <path d="M60.71,7.29c4.37-.2,3.85-2.04,2.9-3.35-10.26-2.75-17.57,.69-22.01,4.27,10.35-1.32,19.11-.92,19.11-.92Z" style="fill: none;"/>
            <path d="M60.71,7.29s-8.76-.4-19.11,.92c-3.51,2.83-5.24,5.74-5.24,5.74-7.69,11.13-3.74,20.73,.15,26.25,5.86-6.92,16.06-14.4,32.73-14.18,0,0,12.49-.83,20.82,6.66,0,0-2.9-15.23-17.41-25-3.23-1.79-6.25-3-9.04-3.75,.95,1.31,1.47,3.15-2.9,3.35Z" style="fill: #e83828; mix-blend-mode: multiply;"/>
            <path d="M62.38,2.6h0c4.19,1.49,7.33,3.25,9.1,4.32-2.66-1.66-5.67-3.14-9.11-4.32Z" style="fill: #f8b62d;"/>
            <path d="M57.92,82.78c-7.96-2.56-23.98-8.94-28.23-19.85C4.12,49.01,4.93,41.53,4.93,41.53c-.01-.59-.01-1.18,0-1.76-.27,3.7-.08,8.25,.52,11.55,0,0,3.65,27.48,33.41,34.24,0,0,5.09,1.15,11.54,.92,4.39-.93,6.56-2.62,7.53-3.69Z" style="fill: #e83828; mix-blend-mode: multiply;"/>
            <path d="M18.25,15.2c6.58-3.97,15.44-5.98,23.36-6.99,4.44-3.58,11.75-7.02,22.01-4.27-.53-.73-1.2-1.3-1.23-1.33C52.6-.86,37.21-2.76,21.06,9.47c0,0-15.63,12.21-16.13,30.3,.12-1.61,.32-3.06,.62-4.17,4.15-15.32,12.7-20.4,12.7-20.4Z" style="fill: #fabe00;"/>
            <path d="M40.94,45.17s-2.2-1.82-4.43-4.97c-4.97,5.86-6.82,11.32-6.82,11.32-1.51,4.25-1.32,8.04,0,11.41,.21,.12,.42,.23,.63,.35,0,0,30.91,13.94,28.31,18.52,0,0-.19,.4-.71,.97-.96,1.07-3.14,2.77-7.53,3.69,1.41-.05,2.88-.17,4.37-.38,2.11-.35,4.75-.96,7.67-2.01,7.25-2.6,16.22-7.91,22.84-18.73,0,0-24.15-2.71-44.34-20.19Z" style="fill: #fabe00;"/>
            <path d="M63.61,3.94c2.79,.75,5.8,1.95,9.04,3.75-.19-.13-.37-.26-.57-.39-.08-.05-.16-.1-.24-.15-.12-.07-.24-.14-.36-.22-1.77-1.07-4.91-2.83-9.1-4.32,.03,.02,.7,.59,1.23,1.33Z" style="fill: #e83828;"/>
            <path d="M29.69,62.93c-1.31-3.37-1.51-7.16,0-11.41,0,0,1.85-5.46,6.82-11.32-3.89-5.52-7.84-15.12-.15-26.25,0,0,1.73-2.91,5.24-5.74-7.92,1.01-16.77,3.02-23.36,6.99,0,0-8.55,5.08-12.7,20.4-.3,1.11-.5,2.56-.62,4.17-.01,.58-.01,1.17,0,1.76,0,0-.8,7.48,24.76,21.4Z" style="fill: #fabe00; mix-blend-mode: multiply;"/>
            <path d="M41.87,8.14c-.11,.02-.21,.03-.31,.04-3.51,2.83-5.24,5.74-5.24,5.74-7.69,11.13-3.74,20.73,.16,26.25,2.53-2.98,5.87-6.07,10.19-8.6-8.24-1.93-11.53-8.52-4.79-23.43Z" style="fill: #980014; opacity: .4;"/>
          </g>
          <g>
            <g>
              <path d="M12.17,106.82c-.63-.43-1.36-.78-2.17-1.03-.78-.24-1.59-.46-2.4-.66-.59-.15-1.17-.3-1.71-.46-.52-.16-.99-.36-1.38-.6-.38-.23-.68-.53-.9-.89-.22-.35-.33-.8-.33-1.36,0-.51,.09-.97,.26-1.38,.17-.4,.42-.75,.77-1.03,.35-.29,.8-.52,1.34-.67,.55-.16,1.21-.24,1.96-.24,1.02,.01,1.98,.13,2.87,.35,.9,.22,1.78,.52,2.62,.87l.42,.18v-3.01l-.19-.08c-.81-.35-1.71-.63-2.69-.85-.98-.22-2.04-.33-3.17-.33-1,0-1.95,.12-2.83,.37-.89,.25-1.7,.64-2.38,1.15-.7,.52-1.25,1.2-1.66,1.99-.41,.8-.61,1.76-.61,2.87s.2,1.96,.59,2.65c.39,.69,.91,1.27,1.55,1.7,.63,.43,1.35,.77,2.15,1.01,.77,.23,1.58,.45,2.39,.63,.6,.14,1.19,.3,1.73,.46,.53,.16,1,.36,1.39,.61,.38,.24,.69,.54,.92,.91,.22,.35,.33,.82,.33,1.38,0,.7-.13,1.28-.39,1.74-.26,.45-.62,.82-1.07,1.08-.46,.27-1.01,.47-1.63,.58-1.02,.19-2.11,.25-3.41,.09-.49-.06-.99-.14-1.48-.25-.48-.11-.96-.24-1.41-.39-.45-.15-.86-.32-1.22-.5l-.44-.22v2.98l.15,.09c.26,.16,.6,.31,1.04,.46,.42,.15,.9,.28,1.43,.4,.52,.12,1.07,.21,1.65,.28,.58,.07,1.15,.1,1.69,.1,1.19,0,2.3-.13,3.31-.37,1.02-.25,1.91-.64,2.66-1.17,.76-.53,1.36-1.21,1.79-2.04,.43-.82,.65-1.81,.65-2.93s-.2-2.03-.61-2.75c-.4-.71-.93-1.3-1.57-1.74Z" style="fill: #e83828;"/>
              <path d="M23.38,115.03c-.82,.12-1.56,.1-2.07-.09-.29-.1-.52-.25-.7-.43-.18-.18-.31-.39-.39-.64-.09-.25-.13-.54-.13-.85v-8.3h4.41v-2.68h-4.41v-4.04h-3.02v4.04h-2.84v2.68h2.84v8.68c0,.66,.1,1.26,.3,1.8,.2,.55,.51,1.02,.92,1.42,.41,.39,.93,.69,1.53,.89,.6,.2,1.31,.3,2.12,.3h0c.6-.01,1.13-.05,1.57-.13,.45-.08,.78-.16,1.01-.25l.19-.08v-2.63l-.39,.11c-.29,.08-.61,.15-.95,.2Z" style="fill: #e83828;"/>
              <path d="M36.85,104.72c-.44-.93-1.17-1.68-2.17-2.24-.99-.55-2.27-.83-3.81-.83-.42,0-.85,.02-1.27,.06-.42,.04-.83,.1-1.21,.18-.38,.08-.75,.18-1.1,.29-.35,.11-.66,.24-.92,.37l-.17,.09v2.65l.41-.16c.64-.24,1.28-.43,1.92-.57,.63-.13,1.32-.2,2.04-.2,.95,0,1.7,.15,2.25,.45,.54,.3,.93,.67,1.17,1.11,.11,.21,.19,.45,.23,.73,.05,.29,.07,.64,.07,1.02v.62c-.44-.14-.92-.26-1.44-.36-.67-.13-1.4-.2-2.19-.21-.84,0-1.61,.11-2.31,.34-.7,.23-1.32,.56-1.82,.99-.51,.43-.91,.96-1.19,1.58-.28,.62-.42,1.32-.42,2.1s.13,1.49,.38,2.12c.25,.63,.62,1.17,1.08,1.61,.46,.44,1.01,.77,1.65,1,.63,.22,1.32,.34,2.07,.34,.55,0,1.08-.06,1.56-.18,.49-.12,.94-.28,1.35-.48,.41-.2,.78-.43,1.1-.69,.15-.12,.28-.24,.41-.36l.21,1.32h2.59v-10.16c0-.49-.04-.95-.11-1.36-.07-.42-.19-.82-.36-1.18Zm-2.55,6.15v2.59c-.11,.1-.25,.23-.43,.38-.23,.19-.51,.39-.84,.59-.33,.19-.7,.36-1.12,.51-.72,.24-1.62,.29-2.36,.06-.3-.1-.57-.24-.79-.44-.22-.19-.39-.44-.52-.74-.13-.3-.19-.66-.19-1.08,0-.81,.24-1.38,.74-1.76,.52-.39,1.27-.59,2.21-.59,.71,0,1.37,.07,1.96,.18,.5,.09,.95,.19,1.33,.29Z" style="fill: #e83828;"/>
              <path d="M48.21,101.69c-.09-.01-.19-.02-.31-.03-.73-.03-1.4,.04-2.04,.21-.54,.15-1.05,.35-1.5,.61-.46,.26-.87,.57-1.23,.92-.2,.19-.38,.38-.54,.59l-.39-1.95h-2.42v15.38h3.02v-10.51c.23-.36,.52-.68,.86-.95,.37-.29,.78-.54,1.24-.74,.46-.2,.96-.36,1.48-.45,.53-.1,1.07-.15,1.62-.15h.49v-2.89l-.27-.03Z" style="fill: #e83828;"/>
            </g>
            <path d="M63.14,109.49c0,5.09-4.12,9.21-9.21,9.21s-9.21-4.12-9.21-9.21,4.12-9.21,9.21-9.21,9.21,4.12,9.21,9.21Z" style="fill: #fff;"/>
            <g>
              <polygon points="86.39 102.04 89.8 102.04 102.29 117.37 98.89 117.37 86.39 102.04" style="fill: #e83828;"/>
              <path d="M81.68,117.76c-5.47,0-8.4-3.96-8.4-8.07,0-4.38,3.13-8.04,7.96-8.04s8.07,3.64,8.07,9.08h-13.19c.41,2.63,2.54,4.55,5.53,4.55,0,0,4.37,.51,7.76-2.88l8.44-10.36h3.41l-9.8,12.03c-4.44,4.44-9.77,3.69-9.77,3.69Zm4.61-9.23c-.27-2.54-2.34-4.41-5.09-4.41-3.25,0-4.82,2.31-5.09,4.41h10.17Z" style="fill: #e83828;"/>
              <path d="M57.87,105.67c-1.07-1.04-2.25-1.54-3.58-1.54-2.63,0-5.09,1.92-5.09,5.71,0,3.14,2.28,5.44,5.35,5.44,1.27,0,2.51-.71,3.43-1.57l1.57,1.95c-1.39,1.42-3.34,2.1-5.32,2.1-4.73,0-7.87-3.76-7.87-8.01s3.46-8.1,7.9-8.1c2.34,0,4.32,.97,5.41,1.92l-1.8,2.1Z" style="fill: #e83828;"/>
              <path d="M67.33,101.65c4.85,0,8.34,3.73,8.34,8.07s-3.31,8.04-8.34,8.04-8.34-3.64-8.34-8.04,3.49-8.07,8.34-8.07Zm-5.5,8.07c0,2.96,2.54,5.56,5.5,5.56s5.5-2.6,5.5-5.56c0-3.2-2.54-5.59-5.5-5.59s-5.5,2.39-5.5,5.59Z" style="fill: #e83828;"/>
            </g>
            <path d="M106.6,105.86c-2.01,0-3.62-1.61-3.62-3.62s1.61-3.63,3.62-3.63,3.62,1.63,3.62,3.63-1.62,3.62-3.62,3.62Zm0-6.76c-1.71,0-3.11,1.4-3.11,3.14s1.4,3.13,3.11,3.13,3.11-1.4,3.11-3.13-1.4-3.14-3.11-3.14Zm-1.35,.8c.3-.06,.75-.1,1.15-.1,.64,0,1.04,.12,1.34,.38,.23,.21,.36,.52,.36,.89,0,.59-.37,1-.83,1.2,.33,.14,.54,.49,.64,.95,.15,.64,.26,1.09,.37,1.29h-.62c-.08-.14-.18-.54-.32-1.12-.12-.64-.37-.89-.92-.9h-.57v2.02h-.6v-4.6Zm.6,2.12h.61c.63,0,1.04-.36,1.04-.89,0-.61-.44-.85-1.08-.85-.28,0-.46,0-.58,.04v1.7Z" style="fill: #e83828;"/>
          </g>
        </g>
      </g>
    </g>
  </g>
</svg>