<?xml version="1.0" encoding="utf-8"?>
<!-- Generator: Adobe Illustrator 27.0.0, SVG Export Plug-In . SVG Version: 6.00 Build 0)  -->
<svg version="1.1" id="레이어_1" xmlns="http://www.w3.org/2000/svg" xmlns:xlink="http://www.w3.org/1999/xlink" x="0px"
	 y="0px" viewBox="0 0 595.28 841.89" style="enable-background:new 0 0 595.28 841.89;" xml:space="preserve">
<style type="text/css">
	.st0{fill:#F8B62D;}
	.st1{fill:none;}
	.st2{fill:#E83828;}
	.st3{fill:#FABE00;}
	.st4{opacity:0.4;fill:#980014;}
	.st5{fill:#FFFFFF;}
</style>
<g>
	<g>
		<path class="st0" d="M305.4,446.74c0,0-40.9-9.78-32.79-32.57c0,0,8.74-25.92,39.55-25.5c0,0,12.49-0.83,20.82,6.66
			c0,0-4.16-22.01-27.69-30.08c0,0,5.2,4.38-1.67,4.69c0,0-27.27-1.25-42.46,7.91c0,0-8.55,5.08-12.7,20.4
			c-0.99,3.65-0.97,10.99-0.1,15.72c0,0,3.65,27.48,33.41,34.24C281.78,448.2,294.68,451.11,305.4,446.74z"/>
		<path class="st0" d="M305.4,446.74c0,0-40.9-9.78-32.79-32.57c0,0,8.74-25.92,39.55-25.5c0,0,12.49-0.83,20.82,6.66
			c0,0-4.16-22.01-27.69-30.08c0,0,5.2,4.38-1.67,4.69c0,0-27.27-1.25-42.46,7.91c0,0-8.55,5.08-12.7,20.4
			c-0.99,3.65-0.97,10.99-0.1,15.72c0,0,3.65,27.48,33.41,34.24C281.78,448.2,294.68,451.11,305.4,446.74z"/>
		<path class="st1" d="M300.84,445.43c0.52-0.58,0.71-0.97,0.71-0.97c2.6-4.58-28.31-18.52-28.31-18.52
			c-0.22-0.12-0.42-0.23-0.63-0.35C276.86,436.49,292.88,442.86,300.84,445.43z"/>
		<path class="st1" d="M303.63,369.93c4.37-0.2,3.85-2.04,2.9-3.35c-10.26-2.75-17.57,0.69-22.01,4.27
			C294.88,369.53,303.63,369.93,303.63,369.93z"/>
		<path class="st2" d="M303.63,369.93c0,0-8.76-0.4-19.11,0.92c-3.51,2.83-5.24,5.74-5.24,5.74c-7.69,11.13-3.74,20.73,0.15,26.25
			c5.86-6.92,16.06-14.4,32.73-14.18c0,0,12.49-0.83,20.82,6.66c0,0-2.9-15.23-17.41-25c-3.23-1.79-6.25-3-9.04-3.75
			C307.48,367.89,308,369.73,303.63,369.93z"/>
		<path class="st0" d="M305.3,365.24L305.3,365.24c4.19,1.49,7.34,3.25,9.11,4.32C311.75,367.91,308.74,366.42,305.3,365.24z"/>
		<path class="st2" d="M300.84,445.43c-7.96-2.56-23.98-8.94-28.23-19.85c-25.57-13.93-24.76-21.4-24.76-21.4
			c-0.01-0.59-0.01-1.18,0-1.76c-0.27,3.7-0.08,8.25,0.52,11.55c0,0,3.65,27.48,33.41,34.24c0,0,5.09,1.15,11.54,0.92
			C297.7,448.19,299.88,446.5,300.84,445.43z"/>
		<path class="st3" d="M261.17,377.84c6.58-3.97,15.44-5.98,23.36-6.99c4.44-3.58,11.75-7.02,22.01-4.27
			c-0.53-0.73-1.2-1.3-1.23-1.33c-9.79-3.47-25.17-5.37-41.33,6.86c0,0-15.63,12.21-16.13,30.3c0.12-1.61,0.32-3.06,0.62-4.17
			C252.62,382.92,261.17,377.84,261.17,377.84z"/>
		<path class="st3" d="M283.86,407.81c0,0-2.2-1.82-4.43-4.97c-4.97,5.86-6.82,11.32-6.82,11.32c-1.51,4.25-1.32,8.04-0.01,11.41
			c0.21,0.12,0.42,0.23,0.63,0.35c0,0,30.91,13.94,28.31,18.52c0,0-0.19,0.4-0.71,0.97c-0.96,1.07-3.14,2.77-7.53,3.69
			c1.41-0.05,2.88-0.17,4.38-0.38c2.11-0.35,4.75-0.96,7.67-2.01c7.25-2.6,16.22-7.91,22.84-18.73
			C328.2,428.01,304.05,425.3,283.86,407.81z"/>
		<path class="st2" d="M306.53,366.58c2.79,0.75,5.8,1.95,9.04,3.75c-0.19-0.13-0.38-0.26-0.57-0.39c-0.08-0.05-0.16-0.1-0.24-0.15
			c-0.12-0.07-0.24-0.14-0.36-0.22c-1.77-1.07-4.91-2.83-9.1-4.32C305.34,365.27,306,365.84,306.53,366.58z"/>
		<path class="st3" d="M272.61,425.58c-1.31-3.37-1.51-7.16,0.01-11.41c0,0,1.85-5.46,6.82-11.32c-3.89-5.52-7.84-15.12-0.15-26.25
			c0,0,1.73-2.91,5.24-5.74c-7.92,1.01-16.77,3.02-23.36,6.99c0,0-8.55,5.08-12.7,20.4c-0.3,1.11-0.5,2.56-0.62,4.17
			c-0.01,0.58-0.01,1.17,0,1.76C247.85,404.17,247.04,411.65,272.61,425.58z"/>
		<path class="st4" d="M284.79,370.78c-0.11,0.02-0.21,0.03-0.31,0.04c-3.51,2.83-5.24,5.74-5.24,5.74
			c-7.69,11.13-3.74,20.73,0.16,26.25c2.53-2.98,5.87-6.07,10.19-8.6C281.34,392.28,278.05,385.69,284.79,370.78z"/>
	</g>
	<g>
		<g>
			<path class="st2" d="M255.09,469.46c-0.63-0.43-1.36-0.78-2.17-1.03c-0.78-0.24-1.59-0.46-2.4-0.66
				c-0.59-0.15-1.17-0.3-1.71-0.46c-0.52-0.16-0.99-0.36-1.38-0.6c-0.38-0.23-0.68-0.53-0.9-0.89c-0.22-0.35-0.33-0.8-0.33-1.36
				c0-0.51,0.09-0.97,0.26-1.38c0.17-0.4,0.42-0.75,0.77-1.03c0.35-0.29,0.8-0.52,1.34-0.67c0.55-0.16,1.21-0.24,1.96-0.24
				c1.02,0.01,1.98,0.13,2.87,0.35c0.9,0.22,1.78,0.52,2.62,0.87l0.42,0.18v-3.01l-0.19-0.08c-0.81-0.35-1.71-0.63-2.69-0.85
				c-0.98-0.22-2.04-0.33-3.17-0.33c-1,0-1.95,0.12-2.83,0.37c-0.89,0.25-1.7,0.64-2.38,1.15c-0.7,0.52-1.25,1.2-1.66,1.99
				c-0.41,0.8-0.61,1.76-0.61,2.87c0,1.06,0.2,1.96,0.59,2.65c0.39,0.69,0.91,1.27,1.55,1.7c0.63,0.43,1.35,0.77,2.15,1.01
				c0.77,0.23,1.58,0.45,2.39,0.63c0.6,0.14,1.18,0.3,1.73,0.46c0.53,0.16,1,0.36,1.4,0.61c0.38,0.24,0.69,0.54,0.92,0.91
				c0.22,0.35,0.33,0.82,0.33,1.38c0,0.7-0.13,1.28-0.39,1.74c-0.26,0.45-0.62,0.82-1.07,1.08c-0.46,0.27-1.01,0.47-1.63,0.58
				c-1.02,0.19-2.11,0.25-3.41,0.09c-0.49-0.06-0.99-0.14-1.48-0.25c-0.48-0.11-0.96-0.24-1.41-0.39c-0.45-0.15-0.86-0.32-1.22-0.5
				l-0.44-0.22v2.98l0.15,0.09c0.26,0.16,0.6,0.31,1.04,0.46c0.42,0.15,0.9,0.28,1.43,0.4c0.52,0.12,1.07,0.21,1.65,0.28
				c0.58,0.07,1.15,0.1,1.69,0.1c1.19,0,2.3-0.13,3.31-0.37c1.02-0.25,1.91-0.64,2.66-1.17c0.76-0.53,1.36-1.21,1.79-2.04
				c0.43-0.82,0.65-1.81,0.65-2.93c0-1.1-0.2-2.03-0.61-2.75C256.27,470.49,255.74,469.9,255.09,469.46z"/>
			<path class="st2" d="M266.29,477.67c-0.82,0.12-1.56,0.1-2.07-0.09c-0.29-0.1-0.52-0.25-0.7-0.43c-0.18-0.18-0.31-0.39-0.39-0.64
				c-0.09-0.25-0.13-0.54-0.13-0.85v-8.3h4.41v-2.68H263v-4.04h-3.02v4.04h-2.84v2.68h2.84v8.68c0,0.66,0.1,1.26,0.3,1.8
				c0.2,0.55,0.51,1.02,0.92,1.42c0.41,0.39,0.93,0.69,1.53,0.89c0.6,0.2,1.31,0.3,2.12,0.3h0h0c0.6-0.01,1.13-0.05,1.57-0.13
				c0.45-0.08,0.78-0.16,1.01-0.25l0.19-0.08v-2.63l-0.39,0.11C266.96,477.55,266.64,477.62,266.29,477.67z"/>
			<path class="st2" d="M279.77,467.36c-0.44-0.93-1.17-1.68-2.17-2.24c-0.99-0.55-2.27-0.83-3.81-0.83c-0.42,0-0.85,0.02-1.27,0.06
				c-0.42,0.04-0.83,0.1-1.21,0.18c-0.38,0.08-0.75,0.18-1.1,0.29c-0.35,0.11-0.66,0.24-0.92,0.37l-0.17,0.08v2.65l0.41-0.16
				c0.64-0.24,1.28-0.43,1.92-0.57c0.63-0.13,1.32-0.2,2.04-0.2c0.95,0,1.7,0.15,2.25,0.45c0.54,0.3,0.93,0.67,1.17,1.11
				c0.11,0.21,0.19,0.45,0.23,0.73c0.05,0.29,0.07,0.64,0.07,1.02v0.62c-0.44-0.14-0.92-0.26-1.44-0.36
				c-0.67-0.13-1.4-0.2-2.19-0.21c-0.84,0-1.61,0.11-2.31,0.34c-0.7,0.23-1.32,0.56-1.82,0.99c-0.51,0.43-0.91,0.96-1.19,1.58
				c-0.28,0.62-0.42,1.32-0.42,2.1c0,0.78,0.13,1.49,0.38,2.12c0.25,0.63,0.62,1.17,1.08,1.61c0.46,0.44,1.01,0.77,1.65,1
				c0.63,0.22,1.32,0.34,2.07,0.34c0.55,0,1.08-0.06,1.56-0.18c0.49-0.12,0.94-0.28,1.35-0.48c0.41-0.2,0.78-0.43,1.1-0.69
				c0.15-0.12,0.28-0.24,0.41-0.36l0.21,1.32h2.59V469.9c0-0.49-0.04-0.95-0.11-1.36C280.05,468.12,279.93,467.72,279.77,467.36z
				 M277.21,473.51v2.59c-0.11,0.1-0.25,0.23-0.43,0.38c-0.23,0.19-0.51,0.39-0.84,0.59c-0.33,0.19-0.7,0.36-1.12,0.51
				c-0.72,0.24-1.62,0.29-2.36,0.06c-0.3-0.1-0.57-0.24-0.79-0.44c-0.22-0.19-0.39-0.44-0.52-0.74c-0.13-0.3-0.19-0.66-0.19-1.08
				c0-0.81,0.24-1.38,0.74-1.76c0.52-0.39,1.27-0.59,2.21-0.59c0.71,0.01,1.37,0.07,1.96,0.18
				C276.38,473.31,276.83,473.41,277.21,473.51z"/>
			<path class="st2" d="M291.13,464.33c-0.09-0.01-0.19-0.02-0.31-0.03c-0.73-0.03-1.4,0.04-2.04,0.21
				c-0.54,0.15-1.05,0.35-1.5,0.61c-0.46,0.26-0.87,0.57-1.23,0.92c-0.2,0.19-0.38,0.38-0.54,0.59l-0.39-1.95h-2.42v15.38h3.02
				v-10.51c0.23-0.36,0.52-0.68,0.86-0.95c0.37-0.29,0.78-0.54,1.24-0.74c0.46-0.2,0.96-0.36,1.48-0.45
				c0.53-0.1,1.07-0.15,1.62-0.15h0.49v-2.89L291.13,464.33z"/>
		</g>
		<path class="st5" d="M306.05,472.13c0,5.09-4.12,9.21-9.21,9.21c-5.09,0-9.21-4.12-9.21-9.21c0-5.09,4.12-9.21,9.21-9.21
			C301.93,462.92,306.05,467.04,306.05,472.13z"/>
		<g>
			<polygon class="st2" points="329.31,464.68 332.72,464.68 345.21,480.01 341.8,480.01 			"/>
			<path class="st2" d="M324.6,480.41c-5.47,0-8.4-3.96-8.4-8.07c0-4.38,3.13-8.04,7.96-8.04c4.76,0,8.07,3.64,8.07,9.08h-13.19
				c0.42,2.63,2.54,4.55,5.53,4.55c0,0,4.37,0.51,7.76-2.88l8.44-10.36h3.41l-9.8,12.03C329.93,481.15,324.6,480.41,324.6,480.41z
				 M329.21,471.18c-0.27-2.54-2.34-4.41-5.09-4.41c-3.25,0-4.82,2.31-5.09,4.41H329.21z"/>
			<path class="st2" d="M300.79,468.31c-1.07-1.04-2.25-1.54-3.58-1.54c-2.63,0-5.09,1.92-5.09,5.71c0,3.14,2.28,5.44,5.35,5.44
				c1.27,0,2.51-0.71,3.43-1.57l1.57,1.95c-1.39,1.42-3.34,2.1-5.32,2.1c-4.73,0-7.87-3.76-7.87-8.01c0-4.41,3.46-8.1,7.9-8.1
				c2.34,0,4.32,0.97,5.41,1.92L300.79,468.31z"/>
			<path class="st2" d="M310.25,464.29c4.85,0,8.34,3.73,8.34,8.07c0,4.41-3.31,8.04-8.34,8.04c-5.03,0-8.34-3.64-8.34-8.04
				C301.91,468.01,305.4,464.29,310.25,464.29z M304.75,472.36c0,2.96,2.54,5.56,5.5,5.56c2.96,0,5.5-2.6,5.5-5.56
				c0-3.2-2.54-5.59-5.5-5.59C307.29,466.77,304.75,469.17,304.75,472.36z"/>
		</g>
		<g>
			<path class="st2" d="M349.51,468.5c-2.01,0-3.62-1.61-3.62-3.62c0-2,1.61-3.63,3.62-3.63c2,0,3.62,1.63,3.62,3.63
				C353.13,466.88,351.51,468.5,349.51,468.5z M349.51,461.74c-1.71,0-3.11,1.4-3.11,3.14c0,1.72,1.4,3.13,3.11,3.13
				c1.71,0,3.11-1.4,3.11-3.13C352.62,463.15,351.22,461.74,349.51,461.74z M348.17,462.54c0.3-0.06,0.75-0.1,1.15-0.1
				c0.64,0,1.04,0.12,1.34,0.38c0.23,0.21,0.36,0.52,0.36,0.89c0,0.59-0.37,1-0.83,1.2c0.33,0.14,0.54,0.49,0.64,0.95
				c0.15,0.64,0.26,1.09,0.37,1.29h-0.62c-0.08-0.14-0.18-0.54-0.32-1.12c-0.12-0.64-0.37-0.89-0.92-0.9h-0.57v2.02h-0.6V462.54z
				 M348.77,464.67h0.61c0.63,0,1.04-0.36,1.04-0.89c0-0.61-0.44-0.85-1.08-0.85c-0.28,0-0.46,0.01-0.58,0.04V464.67z"/>
		</g>
	</g>
</g>
</svg>
