<?xml version="1.0" encoding="UTF-8"?>
<svg id="_레이어_2" data-name="레이어 2" xmlns="http://www.w3.org/2000/svg" viewBox="0 0 219.97 75.66">
  <g id="_레이어_1-2" data-name="레이어 1">
    <g>
      <path d="M122.47,31.17h4.16l.03-.16c.17-.79,.3-1.56,.35-2.35h4.24c-.27,.79-1,.47-1.17,1.27l-1.84,9.51h-3.3l.42-2.05h-4.16l-.32,1.56h-11.6l1.6-7.79c.14-.7,.26-1.28,.3-1.98h4.18c-.09,.26-.8,.18-1.05,1.44l-.28,1.17h5.07l.13-.63c.14-.7,.26-1.28,.3-1.98h3.46c-.25,.7-.37,1.28-.51,1.98v.02Zm-12.75,17.85l1.12-5.46h12.91l.23-1.07h-10.58c-.75,0-1.58,.02-2.34,.09l.51-2.47c.83,.09,1.55,.09,2.3,.09h14.27c-.23,.58-.37,1.17-.49,1.75l-.75,3.59h-12.88l-.24,1.17h10.56c.85,0,1.57,0,2.44-.07l-.51,2.47c-.86-.09-1.13-.09-2.01-.09h-14.53Zm8.39-12.5l.47-2.29h-5.07l-.47,2.29h5.07Zm3.88-3.08l-.34,1.66h4.16l.34-1.66h-4.16Z" style="fill: #da1b5b;"/>
      <path d="M142.67,44.9l.42-2.08c.13-.66,.32-1.4,.35-2.05h4.1c-.21,.61-.94,.53-1.06,1.13l-.55,3h.85c1.39,0,3.38,0,4.79-.09l-.56,2.73c-1.37-.09-2.67-.09-4.06-.09h-14.14c-1.39,0-2.69,0-4.1,.09l.56-2.73c1.37,.09,3.36,.09,4.74,.09h.78l.43-2.08c.14-.66,.31-1.4,.34-2.05h4.15c-.21,.61-.94,.53-1.06,1.13l-.55,3h4.58Zm-5.72-12.86h-.21c-.94,0-1.63,0-2.58,.09l.56-2.75c.92,.09,1.61,.09,2.54,.09h12.56c.94,0,1.63,0,2.58-.09l-.57,2.75c-.91-.09-1.71-.09-2.64-.09h-.16l-1.18,5.35h.85c.93,0,1.62,0,2.58-.09l-.56,2.73c-.92-.09-1.72-.09-2.65-.09h-13.49c-.93,0-1.63,0-2.58,.09l.56-2.73c.91,.09,1.61,.09,2.54,.09h.82l1.02-5.35Zm3.36,0l-1.01,5.35h5.28l1.18-5.35h-5.44Z" style="fill: #da1b5b;"/>
      <path d="M165.33,42.42l-.89,4.33c-.14,.68-.33,1.58-.36,2.26h-3.6c.25-.72,.42-1.54,.57-2.26l.89-4.33h-5.44c-1.39,0-2.69,0-4.1,.09l.56-2.73c1.37,.09,2.68,.09,4.06,.09h14.13c1.39,0,2.69,0,4.1-.09l-.56,2.73c-1.37-.09-2.68-.09-4.06-.09h-5.31Zm6.56-10.64h-4.22c.55,2.68,4.2,4.09,7.46,4.6-.95,.75-1.77,1.49-2.48,2.08-2.5-.54-5.88-1.75-7.44-4.01-1.96,1.87-5.53,3.43-8.96,4.01-.54-.61-1.27-1.49-1.86-2.13,4.76-.84,8.17-2.28,9.41-4.55h-4.22c-.93,0-1.63,0-2.58,.09l.55-2.71c.92,.09,1.61,.09,2.54,.09h12.29c.93,0,2.31,0,3.27-.09,0,0-.1,.25-.87,.96l-.37,1.74c-.92-.09-1.61-.09-2.54-.09Z" style="fill: #da1b5b;"/>
      <path d="M192.89,42.5l-.9,4.41c-.14,.68-.25,1.33-.33,2.1h-3.49c.26-.77,.36-1.47,.51-2.17l.89-4.34h-5.09l-.87,4.25c-.14,.67-.31,1.51-.39,2.29h-3.49c.26-.77,.42-1.66,.56-2.36l.86-4.17h-1.28c-1.39,0-2.69,0-4.1,.09l.56-2.71c1.37,.09,2.67,.09,4.06,.09h14.14c1.39,0,2.69,0,4.1-.09l-.55,2.71c-1.37-.09-2.68-.09-4.06-.09h-1.1Zm-13.05-9.17c.56-2.71,4.33-4.85,9.93-4.85s8.53,2.1,7.96,4.85c-.55,2.71-4.31,4.9-9.94,4.9s-8.52-2.12-7.96-4.9Zm3.6,0c-.29,1.4,1.64,2.41,4.84,2.41s5.5-.94,5.79-2.33c.3-1.47-1.59-2.5-4.8-2.5s-5.54,1-5.83,2.43Z" style="fill: #da1b5b;"/>
      <path d="M206.61,44.87l.41-2.01c.13-.66,.29-1.4,.31-2.05h3.71c-.23,.6-.41,1.44-.53,2.05l-.41,2.01h5.33c1.39,0,2.69,0,4.1-.09l-.56,2.71c-1.37-.09-2.67-.09-4.06-.09h-14.11c-1.39,0-2.69,0-4.1,.09l.55-2.71c1.37,.09,2.67,.09,4.06,.09h5.28Zm7.59-15.59c-.22,.56-1.05,1.23-1.16,1.8-.77,3.75,2.75,6.88,6.94,7.79-.95,.7-1.95,1.56-2.6,2.14-2.76-.84-5.86-2.87-7.09-5.48-2.17,2.66-5.85,4.58-9.29,5.51-.42-.56-1.05-1.38-1.81-2.22,4.95-1.12,9.39-3.9,10.18-7.75,.12-.58,.22-1.21,.26-1.8h4.58Z" style="fill: #da1b5b;"/>
    </g>
    <g>
      <g>
        <path d="M98.22,31.16c-16.27-3.86-28.9-3.13-38.6-.29-.82,6.69,2.74,11.55-1.43,14.88,29.09-11.2,40.02-14.59,40.02-14.59Z" style="fill: #d1529e; stroke: #fff; stroke-miterlimit: 10; stroke-width: 3.05px;"/>
        <path d="M53.8,6.77s-2.33,16.41-14.12,35.48c4.47-4.31,10.94-8.76,19.94-11.39,.78-6.2-.69-14.08-5.82-24.09Z" style="fill: #154a9c; stroke: #fff; stroke-miterlimit: 10; stroke-width: 3.05px;"/>
        <path d="M39.68,42.26c-2.26,3.64,1.3,2.42-1.7,6.16,0,0,7.47-.57,13.24-2.79,4.16-3.34,7.58-8.07,8.39-14.76-9,2.63-15.47,7.08-19.94,11.39Z" style="fill: #01b4b7; stroke: #fff; stroke-miterlimit: 10; stroke-width: 3.05px;"/>
      </g>
      <g>
        <path d="M98.22,31.16c-16.27-3.86-28.9-3.13-38.6-.29-.82,6.69,4.34,11.15,.18,14.48,29.09-11.2,38.42-14.19,38.42-14.19Z" style="fill: #da1b5b;"/>
        <path d="M53.8,6.77s-2.33,16.41-14.12,35.48c-2.26,3.64-3.86,.56-6.85,4.3,0,0,12.63,1.28,18.4-.94,4.16-3.34,7.58-8.07,8.39-14.76,.78-6.2-.69-14.08-5.82-24.09Z" style="fill: #f7941c;"/>
      </g>
    </g>
    <g>
      <g>
        <path d="M5.81,6.59c9.74,18.53,21.51,29.47,33.12,35.76,8.27-5.42,16.57-6.66,23.95-5.91C25.01,20.04,5.81,6.59,5.81,6.59Z" style="fill: #d1529e; stroke: #fff; stroke-miterlimit: 10; stroke-width: 4.14px;"/>
        <path d="M16.77,69.98s20.55-13.03,52.32-19.8c-8.75-.14-19.38-1.97-30.16-7.82-7.67,5.02-15.32,13.65-22.16,27.62Z" style="fill: #154a9c; stroke: #fff; stroke-miterlimit: 10; stroke-width: 4.14px;"/>
        <path d="M69.08,50.18c6.06-1.29,12.53-2.36,19.35-3.07,0,0-18.05-7.42-25.56-10.67-7.38-.75-15.68,.49-23.95,5.91,10.78,5.85,21.41,7.69,30.16,7.82Z" style="fill: #01b4b7; stroke: #fff; stroke-miterlimit: 10; stroke-width: 4.14px;"/>
      </g>
      <g>
        <path d="M5.81,6.59c9.74,18.53,21.51,29.47,33.12,35.76,8.27-5.42,16.57-6.66,23.95-5.91C25.01,20.04,5.81,6.59,5.81,6.59Z" style="fill: #feda00;"/>
        <path d="M16.77,69.98s20.55-13.03,52.32-19.8c-8.75-.14-19.38-1.97-30.16-7.82-7.67,5.02-15.32,13.65-22.16,27.62Z" style="fill: #da1b5b;"/>
        <path d="M69.08,50.18c6.06-1.29,12.53-2.36,19.35-3.07,0,0-26.75-11.32-34.25-14.57-3.01,.9-11.53,6.72-15.25,9.81,10.78,5.85,21.41,7.69,30.16,7.82Z" style="fill: #f7941c;"/>
      </g>
    </g>
  </g>
</svg>