<?xml version="1.0" encoding="UTF-8"?>
<svg xmlns="http://www.w3.org/2000/svg" viewBox="0 0 1245.16 433.79">
  <g style="isolation: isolate;">
    <g id="_레이어_1" data-name="레이어 1">
      <g>
        <g>
          <path d="M57.68,84.1s-40.9-9.78-32.79-32.57c0,0,8.74-25.92,39.55-25.5,0,0,12.49-.83,20.82,6.66,0,0-4.17-22.01-27.69-30.08,0,0,5.2,4.38-1.67,4.69,0,0-27.27-1.25-42.46,7.91,0,0-8.55,5.08-12.7,20.4-.99,3.65-.97,10.99-.1,15.72,0,0,3.65,27.48,33.41,34.24,0,0,12.91,2.91,23.63-1.46Z" style="fill: #f8b62d;"/>
          <path d="M57.68,84.1s-40.9-9.78-32.79-32.57c0,0,8.74-25.92,39.55-25.5,0,0,12.49-.83,20.82,6.66,0,0-4.17-22.01-27.69-30.08,0,0,5.2,4.38-1.67,4.69,0,0-27.27-1.25-42.46,7.91,0,0-8.55,5.08-12.7,20.4-.99,3.65-.97,10.99-.1,15.72,0,0,3.65,27.48,33.41,34.24,0,0,12.91,2.91,23.63-1.46Z" style="fill: #f8b62d;"/>
          <path d="M53.12,82.78c.52-.58,.71-.97,.71-.97,2.6-4.58-28.31-18.52-28.31-18.52-.22-.12-.42-.23-.64-.35,4.25,10.91,20.27,17.29,28.24,19.85Z" style="fill: none;"/>
          <path d="M55.91,7.29c4.37-.2,3.85-2.04,2.9-3.35-10.26-2.75-17.57,.69-22.01,4.27,10.35-1.32,19.11-.92,19.11-.92Z" style="fill: none;"/>
          <path d="M55.91,7.29s-8.76-.4-19.11,.92c-3.51,2.83-5.24,5.74-5.24,5.74-7.68,11.13-3.74,20.73,.15,26.25,5.86-6.92,16.06-14.4,32.73-14.18,0,0,12.49-.83,20.82,6.66,0,0-2.9-15.23-17.41-25-3.23-1.79-6.25-3-9.04-3.75,.95,1.31,1.47,3.15-2.9,3.35Z" style="fill: #e83828; mix-blend-mode: multiply;"/>
          <path d="M57.58,2.6h0c4.19,1.49,7.33,3.25,9.1,4.32-2.66-1.66-5.67-3.14-9.11-4.32Z" style="fill: #f8b62d;"/>
          <path d="M53.12,82.78c-7.96-2.56-23.98-8.94-28.24-19.85C-.68,49.01,.12,41.53,.12,41.53c-.01-.59-.01-1.18,0-1.76-.27,3.7-.08,8.25,.52,11.55,0,0,3.65,27.48,33.41,34.24,0,0,5.09,1.15,11.54,.92,4.39-.93,6.56-2.62,7.53-3.69Z" style="fill: #e83828; mix-blend-mode: multiply;"/>
          <path d="M13.45,15.2c6.58-3.97,15.43-5.98,23.36-6.99,4.44-3.58,11.75-7.02,22.01-4.27-.53-.73-1.2-1.3-1.23-1.33C47.79-.86,32.41-2.76,16.25,9.47,16.25,9.47,.62,21.68,.12,39.77c.12-1.61,.32-3.06,.62-4.17C4.9,20.28,13.45,15.2,13.45,15.2Z" style="fill: #fabe00;"/>
          <path d="M36.14,45.17s-2.2-1.82-4.42-4.97c-4.97,5.86-6.82,11.32-6.82,11.32-1.51,4.25-1.32,8.04,0,11.41,.21,.12,.42,.23,.64,.35,0,0,30.91,13.94,28.31,18.52,0,0-.19,.4-.71,.97-.97,1.07-3.14,2.77-7.53,3.69,1.41-.05,2.88-.17,4.38-.38,2.11-.35,4.75-.96,7.67-2.01,7.25-2.6,16.22-7.91,22.84-18.73,0,0-24.15-2.71-44.34-20.19Z" style="fill: #fabe00;"/>
          <path d="M58.81,3.94c2.79,.75,5.81,1.95,9.04,3.75-.19-.13-.37-.26-.57-.39-.08-.05-.16-.1-.24-.15-.12-.07-.24-.14-.36-.22-1.77-1.07-4.91-2.83-9.1-4.32,.03,.02,.7,.59,1.23,1.33Z" style="fill: #e83828;"/>
          <path d="M24.89,62.93c-1.31-3.37-1.5-7.16,0-11.41,0,0,1.85-5.46,6.82-11.32-3.89-5.52-7.84-15.12-.15-26.25,0,0,1.73-2.91,5.24-5.74-7.92,1.01-16.77,3.02-23.36,6.99,0,0-8.55,5.08-12.7,20.4-.3,1.11-.5,2.56-.62,4.17-.01,.58-.01,1.17,0,1.76,0,0-.8,7.48,24.76,21.4Z" style="fill: #fabe00; mix-blend-mode: multiply;"/>
          <path d="M37.07,8.14c-.11,.02-.21,.03-.32,.04-3.51,2.83-5.24,5.74-5.24,5.74-7.69,11.13-3.74,20.73,.16,26.25,2.53-2.98,5.87-6.07,10.19-8.6-8.24-1.93-11.53-8.52-4.79-23.43Z" style="fill: #980014; opacity: .4;"/>
        </g>
        <g>
          <g>
            <path d="M100.4,49.1c-.87-.6-1.86-1.07-2.97-1.41-1.07-.33-2.17-.63-3.28-.9-.81-.2-1.6-.41-2.34-.63-.72-.21-1.35-.49-1.89-.83-.51-.32-.93-.73-1.23-1.22-.3-.48-.45-1.1-.45-1.85,0-.69,.12-1.33,.35-1.89,.23-.55,.58-1.02,1.05-1.41,.48-.39,1.09-.7,1.83-.92,.75-.22,1.66-.33,2.68-.33,1.39,.01,2.71,.17,3.93,.48,1.23,.31,2.43,.71,3.58,1.19l.58,.24v-4.12l-.25-.11c-1.11-.48-2.35-.87-3.68-1.16-1.34-.29-2.79-.44-4.33-.44-1.36,0-2.67,.17-3.87,.5-1.22,.34-2.32,.87-3.26,1.58-.95,.72-1.71,1.63-2.27,2.73-.56,1.09-.84,2.41-.84,3.92s.27,2.68,.81,3.63c.53,.95,1.25,1.73,2.13,2.33,.86,.59,1.85,1.05,2.94,1.38,1.06,.32,2.16,.61,3.27,.87,.82,.2,1.62,.41,2.37,.63,.72,.22,1.36,.5,1.91,.84,.52,.33,.95,.74,1.26,1.24,.3,.48,.46,1.12,.46,1.88,0,.96-.18,1.75-.54,2.38-.36,.62-.85,1.12-1.46,1.47-.63,.37-1.39,.64-2.24,.8-1.4,.26-2.88,.34-4.67,.12-.67-.08-1.35-.2-2.02-.34-.66-.15-1.31-.32-1.93-.53-.62-.21-1.18-.43-1.67-.68l-.6-.3v4.08l.2,.12c.35,.22,.82,.42,1.42,.63,.58,.2,1.24,.39,1.95,.55,.71,.16,1.47,.29,2.25,.38,.79,.09,1.57,.14,2.31,.14,1.63,0,3.15-.17,4.52-.51,1.39-.34,2.62-.88,3.64-1.59,1.04-.72,1.86-1.66,2.45-2.79,.59-1.13,.89-2.48,.89-4.01s-.28-2.77-.83-3.75c-.55-.97-1.27-1.77-2.15-2.38Z" style="fill: #e83828;"/>
            <path d="M115.72,60.33c-1.12,.16-2.14,.13-2.83-.12-.39-.14-.72-.34-.96-.58-.24-.24-.42-.54-.54-.87-.12-.35-.18-.74-.18-1.16v-11.36h6.04v-3.66h-6.04v-5.53h-4.13v5.53h-3.89v3.66h3.89v11.87c0,.9,.14,1.72,.41,2.46,.28,.75,.7,1.4,1.26,1.94,.56,.53,1.27,.94,2.1,1.22,.82,.28,1.79,.41,2.9,.41h0c.82-.01,1.55-.07,2.15-.18,.61-.11,1.07-.22,1.38-.34l.26-.11v-3.6l-.53,.15c-.39,.11-.83,.2-1.3,.27Z" style="fill: #e83828;"/>
            <path d="M134.15,46.24c-.6-1.27-1.6-2.29-2.97-3.06-1.35-.75-3.11-1.14-5.21-1.14-.57,0-1.16,.03-1.74,.09-.58,.06-1.14,.14-1.66,.25-.52,.11-1.03,.24-1.5,.39-.48,.15-.9,.32-1.26,.5l-.23,.12v3.63l.57-.22c.87-.33,1.75-.59,2.63-.78,.87-.18,1.81-.28,2.79-.28,1.3,0,2.33,.21,3.07,.62,.73,.41,1.27,.92,1.6,1.52,.15,.28,.26,.62,.32,1,.07,.4,.1,.87,.1,1.4v.85c-.6-.19-1.26-.36-1.97-.49-.91-.17-1.92-.27-2.99-.28-1.15,0-2.21,.16-3.16,.47-.96,.31-1.8,.77-2.49,1.36-.7,.59-1.24,1.32-1.63,2.16-.38,.84-.58,1.81-.58,2.87s.17,2.04,.52,2.9c.35,.86,.84,1.6,1.47,2.2,.63,.6,1.39,1.06,2.25,1.37,.86,.31,1.81,.46,2.83,.46,.75,0,1.47-.08,2.14-.25,.66-.16,1.29-.38,1.85-.66,.56-.28,1.07-.59,1.5-.94,.2-.16,.39-.33,.56-.49l.29,1.81h3.54v-13.9c0-.67-.05-1.3-.14-1.86-.1-.58-.26-1.12-.49-1.61Zm-3.5,8.41v3.54c-.15,.14-.34,.31-.58,.52-.31,.27-.7,.54-1.15,.81-.44,.27-.96,.5-1.54,.7-.98,.33-2.22,.4-3.22,.08-.41-.13-.78-.33-1.08-.6-.3-.26-.53-.6-.71-1.01-.17-.41-.26-.91-.26-1.47,0-1.1,.33-1.89,1.02-2.41,.71-.54,1.73-.81,3.03-.81,.97,.01,1.87,.1,2.68,.25,.68,.13,1.29,.26,1.82,.4Z" style="fill: #e83828;"/>
            <path d="M149.69,42.09c-.12-.01-.26-.03-.42-.04-1-.04-1.92,.05-2.79,.29-.74,.2-1.43,.48-2.06,.84-.62,.36-1.19,.78-1.69,1.25-.27,.26-.52,.53-.74,.81l-.53-2.66h-3.31v21.03h4.13v-14.37c.32-.5,.71-.93,1.17-1.3,.5-.4,1.07-.74,1.69-1.02,.63-.28,1.31-.49,2.02-.62,.72-.14,1.47-.21,2.22-.21h.67v-3.96l-.37-.04Z" style="fill: #e83828;"/>
          </g>
          <path d="M170.1,52.75c0,6.96-5.64,12.6-12.6,12.6s-12.6-5.64-12.6-12.6,5.64-12.6,12.6-12.6,12.6,5.64,12.6,12.6Z" style="fill: #fff;"/>
          <g>
            <polygon points="201.92 42.57 206.58 42.57 223.66 63.54 219 63.54 201.92 42.57" style="fill: #e83828;"/>
            <path d="M195.47,64.08c-7.48,0-11.49-5.42-11.49-11.04,0-5.99,4.29-11,10.88-11s11.04,4.98,11.04,12.42h-18.04c.57,3.6,3.48,6.23,7.57,6.23,0,0,5.97,.69,10.61-3.94l11.54-14.16h4.66l-13.4,16.45c-6.07,6.07-13.37,5.05-13.37,5.05Zm6.31-12.62c-.36-3.48-3.2-6.03-6.96-6.03-4.45,0-6.6,3.15-6.96,6.03h13.92Z" style="fill: #e83828;"/>
            <path d="M162.9,47.53c-1.46-1.42-3.08-2.1-4.9-2.1-3.6,0-6.96,2.63-6.96,7.81,0,4.29,3.12,7.44,7.32,7.44,1.74,0,3.44-.97,4.69-2.14l2.14,2.67c-1.9,1.94-4.57,2.87-7.28,2.87-6.47,0-10.76-5.14-10.76-10.96s4.73-11.08,10.8-11.08c3.2,0,5.91,1.33,7.4,2.63l-2.47,2.87Z" style="fill: #e83828;"/>
            <path d="M175.84,42.03c6.64,0,11.41,5.1,11.41,11.04s-4.53,11-11.41,11-11.41-4.98-11.41-11,4.77-11.04,11.41-11.04Zm-7.52,11.04c0,4.04,3.48,7.61,7.52,7.61s7.53-3.56,7.53-7.61c0-4.37-3.48-7.65-7.53-7.65s-7.52,3.28-7.52,7.65Z" style="fill: #e83828;"/>
          </g>
          <path d="M229.55,47.79c-2.74,0-4.95-2.21-4.95-4.95s2.21-4.96,4.95-4.96,4.95,2.23,4.95,4.96-2.22,4.95-4.95,4.95Zm0-9.23c-2.33,0-4.25,1.92-4.25,4.29s1.92,4.27,4.25,4.27,4.25-1.92,4.25-4.27-1.92-4.29-4.25-4.29Zm-1.84,1.1c.41-.08,1.03-.14,1.58-.14,.88,0,1.43,.16,1.83,.53,.32,.29,.49,.71,.49,1.21,0,.81-.5,1.36-1.13,1.63,.46,.19,.73,.66,.87,1.29,.21,.88,.35,1.5,.5,1.76h-.85c-.1-.19-.25-.73-.43-1.53-.16-.87-.5-1.21-1.26-1.23h-.78v2.77h-.82v-6.29Zm.82,2.9h.83c.86,0,1.43-.49,1.43-1.21,0-.83-.61-1.17-1.47-1.17-.38,0-.63,.01-.79,.06v2.32Z" style="fill: #e83828;"/>
        </g>
      </g>
      <g>
        <g>
          <path d="M167.83,251.46s-40.9-9.78-32.79-32.57c0,0,8.74-25.92,39.55-25.5,0,0,12.49-.83,20.82,6.66,0,0-4.16-22.01-27.69-30.08,0,0,5.2,4.38-1.67,4.69,0,0-27.27-1.25-42.46,7.91,0,0-8.55,5.08-12.7,20.4-.99,3.65-.97,10.99-.1,15.72,0,0,3.65,27.48,33.41,34.24,0,0,12.9,2.91,23.62-1.46Z" style="fill: #f8b62d;"/>
          <path d="M167.83,251.46s-40.9-9.78-32.79-32.57c0,0,8.74-25.92,39.55-25.5,0,0,12.49-.83,20.82,6.66,0,0-4.16-22.01-27.69-30.08,0,0,5.2,4.38-1.67,4.69,0,0-27.27-1.25-42.46,7.91,0,0-8.55,5.08-12.7,20.4-.99,3.65-.97,10.99-.1,15.72,0,0,3.65,27.48,33.41,34.24,0,0,12.9,2.91,23.62-1.46Z" style="fill: #f8b62d;"/>
          <path d="M163.27,250.14c.52-.58,.71-.97,.71-.97,2.6-4.58-28.31-18.52-28.31-18.52-.22-.12-.42-.23-.63-.35,4.25,10.91,20.27,17.29,28.23,19.85Z" style="fill: none;"/>
          <path d="M166.06,174.65c4.37-.2,3.85-2.04,2.9-3.35-10.26-2.75-17.57,.69-22.01,4.27,10.35-1.32,19.11-.92,19.11-.92Z" style="fill: none;"/>
          <path d="M166.06,174.65s-8.76-.4-19.11,.92c-3.51,2.83-5.24,5.74-5.24,5.74-7.69,11.13-3.74,20.73,.15,26.25,5.86-6.92,16.06-14.4,32.73-14.18,0,0,12.49-.83,20.82,6.66,0,0-2.9-15.23-17.41-25-3.23-1.79-6.25-3-9.04-3.75,.95,1.31,1.47,3.15-2.9,3.35Z" style="fill: #e83828; mix-blend-mode: multiply;"/>
          <path d="M167.73,169.96h0c4.19,1.49,7.33,3.25,9.1,4.32-2.66-1.66-5.67-3.14-9.11-4.32Z" style="fill: #f8b62d;"/>
          <path d="M163.27,250.14c-7.96-2.56-23.98-8.94-28.23-19.85-25.57-13.93-24.76-21.4-24.76-21.4-.01-.59-.01-1.18,0-1.76-.27,3.7-.08,8.25,.52,11.55,0,0,3.65,27.48,33.41,34.24,0,0,5.09,1.15,11.54,.92,4.39-.93,6.56-2.62,7.53-3.69Z" style="fill: #e83828; mix-blend-mode: multiply;"/>
          <path d="M123.6,182.56c6.58-3.97,15.44-5.98,23.36-6.99,4.44-3.58,11.75-7.02,22.01-4.27-.53-.73-1.2-1.3-1.23-1.33-9.79-3.47-25.17-5.37-41.33,6.86,0,0-15.63,12.21-16.13,30.3,.12-1.61,.32-3.06,.62-4.17,4.15-15.32,12.7-20.4,12.7-20.4Z" style="fill: #fabe00;"/>
          <path d="M146.29,212.53s-2.2-1.82-4.43-4.97c-4.97,5.86-6.82,11.32-6.82,11.32-1.51,4.25-1.32,8.04,0,11.41,.21,.12,.42,.23,.63,.35,0,0,30.91,13.94,28.31,18.52,0,0-.19,.4-.71,.97-.96,1.07-3.14,2.77-7.53,3.69,1.41-.05,2.88-.17,4.37-.38,2.11-.35,4.75-.96,7.67-2.01,7.25-2.6,16.22-7.91,22.84-18.73,0,0-24.15-2.71-44.34-20.19Z" style="fill: #fabe00;"/>
          <path d="M168.96,171.29c2.79,.75,5.8,1.95,9.04,3.75-.19-.13-.37-.26-.57-.39-.08-.05-.16-.1-.24-.15-.12-.07-.24-.14-.36-.22-1.77-1.07-4.91-2.83-9.1-4.32,.03,.02,.7,.59,1.23,1.33Z" style="fill: #e83828;"/>
          <path d="M135.04,230.29c-1.31-3.37-1.51-7.16,0-11.41,0,0,1.85-5.46,6.82-11.32-3.89-5.52-7.84-15.12-.15-26.25,0,0,1.73-2.91,5.24-5.74-7.92,1.01-16.77,3.02-23.36,6.99,0,0-8.55,5.08-12.7,20.4-.3,1.11-.5,2.56-.62,4.17-.01,.58-.01,1.17,0,1.76,0,0-.8,7.48,24.76,21.4Z" style="fill: #fabe00; mix-blend-mode: multiply;"/>
          <path d="M147.22,175.49c-.11,.02-.21,.03-.31,.04-3.51,2.83-5.24,5.74-5.24,5.74-7.69,11.13-3.74,20.73,.16,26.25,2.53-2.98,5.87-6.07,10.19-8.6-8.24-1.93-11.53-8.52-4.79-23.43Z" style="fill: #980014; opacity: .4;"/>
        </g>
        <g>
          <g>
            <path d="M117.52,274.17c-.63-.43-1.36-.78-2.17-1.03-.78-.24-1.59-.46-2.4-.66-.59-.15-1.17-.3-1.71-.46-.52-.16-.99-.36-1.38-.6-.38-.23-.68-.53-.9-.89-.22-.35-.33-.8-.33-1.36,0-.51,.09-.97,.26-1.38,.17-.4,.42-.75,.77-1.03,.35-.29,.8-.52,1.34-.67,.55-.16,1.21-.24,1.96-.24,1.02,.01,1.98,.13,2.87,.35,.9,.22,1.78,.52,2.62,.87l.42,.18v-3.01l-.19-.08c-.81-.35-1.71-.63-2.69-.85-.98-.22-2.04-.33-3.17-.33-1,0-1.95,.12-2.83,.37-.89,.25-1.7,.64-2.38,1.15-.7,.52-1.25,1.2-1.66,1.99-.41,.8-.61,1.76-.61,2.87s.2,1.96,.59,2.65c.39,.69,.91,1.27,1.55,1.7,.63,.43,1.35,.77,2.15,1.01,.77,.23,1.58,.45,2.39,.63,.6,.14,1.19,.3,1.73,.46,.53,.16,1,.36,1.39,.61,.38,.24,.69,.54,.92,.91,.22,.35,.33,.82,.33,1.38,0,.7-.13,1.28-.39,1.74-.26,.45-.62,.82-1.07,1.08-.46,.27-1.01,.47-1.63,.58-1.02,.19-2.11,.25-3.41,.09-.49-.06-.99-.14-1.48-.25-.48-.11-.96-.24-1.41-.39-.45-.15-.86-.32-1.22-.5l-.44-.22v2.98l.15,.09c.26,.16,.6,.31,1.04,.46,.42,.15,.9,.28,1.43,.4,.52,.12,1.07,.21,1.65,.28,.58,.07,1.15,.1,1.69,.1,1.19,0,2.3-.13,3.31-.37,1.02-.25,1.91-.64,2.66-1.17,.76-.53,1.36-1.21,1.79-2.04,.43-.82,.65-1.81,.65-2.93s-.2-2.03-.61-2.75c-.4-.71-.93-1.3-1.57-1.74Z" style="fill: #e83828;"/>
            <path d="M128.72,282.39c-.82,.12-1.56,.1-2.07-.09-.29-.1-.52-.25-.7-.43-.18-.18-.31-.39-.39-.64-.09-.25-.13-.54-.13-.85v-8.3h4.41v-2.68h-4.41v-4.04h-3.02v4.04h-2.84v2.68h2.84v8.68c0,.66,.1,1.26,.3,1.8,.2,.55,.51,1.02,.92,1.42,.41,.39,.93,.69,1.53,.89,.6,.2,1.31,.3,2.12,.3h0c.6-.01,1.13-.05,1.57-.13,.45-.08,.78-.16,1.01-.25l.19-.08v-2.63l-.39,.11c-.29,.08-.61,.15-.95,.2Z" style="fill: #e83828;"/>
            <path d="M142.19,272.08c-.44-.93-1.17-1.68-2.17-2.24-.99-.55-2.27-.83-3.81-.83-.42,0-.85,.02-1.27,.06-.42,.04-.83,.1-1.21,.18-.38,.08-.75,.18-1.1,.29-.35,.11-.66,.24-.92,.37l-.17,.09v2.65l.41-.16c.64-.24,1.28-.43,1.92-.57,.63-.13,1.32-.2,2.04-.2,.95,0,1.7,.15,2.25,.45,.54,.3,.93,.67,1.17,1.11,.11,.21,.19,.45,.23,.73,.05,.29,.07,.64,.07,1.02v.62c-.44-.14-.92-.26-1.44-.36-.67-.13-1.4-.2-2.19-.21-.84,0-1.61,.11-2.31,.34-.7,.23-1.32,.56-1.82,.99-.51,.43-.91,.96-1.19,1.58-.28,.62-.42,1.32-.42,2.1s.13,1.49,.38,2.12c.25,.63,.62,1.17,1.08,1.61,.46,.44,1.01,.77,1.65,1,.63,.22,1.32,.34,2.07,.34,.55,0,1.08-.06,1.56-.18,.49-.12,.94-.28,1.35-.48,.41-.2,.78-.43,1.1-.69,.15-.12,.28-.24,.41-.36l.21,1.32h2.59v-10.16c0-.49-.04-.95-.11-1.36-.07-.42-.19-.82-.36-1.18Zm-2.55,6.15v2.59c-.11,.1-.25,.23-.43,.38-.23,.19-.51,.39-.84,.59-.33,.19-.7,.36-1.12,.51-.72,.24-1.62,.29-2.36,.06-.3-.1-.57-.24-.79-.44-.22-.19-.39-.44-.52-.74-.13-.3-.19-.66-.19-1.08,0-.81,.24-1.38,.74-1.76,.52-.39,1.27-.59,2.21-.59,.71,0,1.37,.07,1.96,.18,.5,.09,.95,.19,1.33,.29Z" style="fill: #e83828;"/>
            <path d="M153.56,269.05c-.09-.01-.19-.02-.31-.03-.73-.03-1.4,.04-2.04,.21-.54,.15-1.05,.35-1.5,.61-.46,.26-.87,.57-1.23,.92-.2,.19-.38,.38-.54,.59l-.39-1.95h-2.42v15.38h3.02v-10.51c.23-.36,.52-.68,.86-.95,.37-.29,.78-.54,1.24-.74,.46-.2,.96-.36,1.48-.45,.53-.1,1.07-.15,1.62-.15h.49v-2.89l-.27-.03Z" style="fill: #e83828;"/>
          </g>
          <path d="M168.48,276.84c0,5.09-4.12,9.21-9.21,9.21s-9.21-4.12-9.21-9.21,4.12-9.21,9.21-9.21,9.21,4.12,9.21,9.21Z" style="fill: #fff;"/>
          <g>
            <polygon points="191.74 269.4 195.15 269.4 207.64 284.73 204.23 284.73 191.74 269.4" style="fill: #e83828;"/>
            <path d="M187.02,285.12c-5.47,0-8.4-3.96-8.4-8.07,0-4.38,3.13-8.04,7.96-8.04s8.07,3.64,8.07,9.08h-13.19c.41,2.63,2.54,4.55,5.53,4.55,0,0,4.37,.51,7.76-2.88l8.44-10.36h3.41l-9.8,12.03c-4.44,4.44-9.77,3.69-9.77,3.69Zm4.61-9.23c-.27-2.54-2.34-4.41-5.09-4.41-3.25,0-4.82,2.31-5.09,4.41h10.17Z" style="fill: #e83828;"/>
            <path d="M163.22,273.02c-1.07-1.04-2.25-1.54-3.58-1.54-2.63,0-5.09,1.92-5.09,5.71,0,3.14,2.28,5.44,5.35,5.44,1.27,0,2.51-.71,3.43-1.57l1.57,1.95c-1.39,1.42-3.34,2.1-5.32,2.1-4.73,0-7.87-3.76-7.87-8.01s3.46-8.1,7.9-8.1c2.34,0,4.32,.97,5.41,1.92l-1.8,2.1Z" style="fill: #e83828;"/>
            <path d="M172.68,269c4.85,0,8.34,3.73,8.34,8.07s-3.31,8.04-8.34,8.04-8.34-3.64-8.34-8.04,3.49-8.07,8.34-8.07Zm-5.5,8.07c0,2.96,2.54,5.56,5.5,5.56s5.5-2.6,5.5-5.56c0-3.2-2.54-5.59-5.5-5.59s-5.5,2.39-5.5,5.59Z" style="fill: #e83828;"/>
          </g>
          <path d="M211.94,273.21c-2.01,0-3.62-1.61-3.62-3.62s1.61-3.63,3.62-3.63,3.62,1.63,3.62,3.63-1.62,3.62-3.62,3.62Zm0-6.76c-1.71,0-3.11,1.4-3.11,3.14s1.4,3.13,3.11,3.13,3.11-1.4,3.11-3.13-1.4-3.14-3.11-3.14Zm-1.35,.8c.3-.06,.75-.1,1.15-.1,.64,0,1.04,.12,1.34,.38,.23,.21,.36,.52,.36,.89,0,.59-.37,1-.83,1.2,.33,.14,.54,.49,.64,.95,.15,.64,.26,1.09,.37,1.29h-.62c-.08-.14-.18-.54-.32-1.12-.12-.64-.37-.89-.92-.9h-.57v2.02h-.6v-4.6Zm.6,2.12h.61c.63,0,1.04-.36,1.04-.89,0-.61-.44-.85-1.08-.85-.28,0-.46,0-.58,.04v1.7Z" style="fill: #e83828;"/>
        </g>
      </g>
      <g>
        <g>
          <path d="M1007.68,84.1s-40.9-9.78-32.79-32.57c0,0,8.74-25.92,39.55-25.5,0,0,12.49-.83,20.82,6.66,0,0-4.17-22.01-27.69-30.08,0,0,5.2,4.38-1.67,4.69,0,0-27.27-1.25-42.46,7.91,0,0-8.55,5.08-12.7,20.4-.99,3.65-.96,10.99-.1,15.72,0,0,3.65,27.48,33.41,34.24,0,0,12.91,2.91,23.63-1.46Z" style="fill: #f8b62d;"/>
          <path d="M1007.68,84.1s-40.9-9.78-32.79-32.57c0,0,8.74-25.92,39.55-25.5,0,0,12.49-.83,20.82,6.66,0,0-4.17-22.01-27.69-30.08,0,0,5.2,4.38-1.67,4.69,0,0-27.27-1.25-42.46,7.91,0,0-8.55,5.08-12.7,20.4-.99,3.65-.96,10.99-.1,15.72,0,0,3.65,27.48,33.41,34.24,0,0,12.91,2.91,23.63-1.46Z" style="fill: #f8b62d;"/>
          <path d="M1003.12,82.78c.52-.58,.71-.97,.71-.97,2.6-4.58-28.31-18.52-28.31-18.52-.22-.12-.42-.23-.64-.35,4.25,10.91,20.27,17.29,28.24,19.85Z" style="fill: none;"/>
          <path d="M1005.91,7.29c4.37-.2,3.85-2.04,2.9-3.35-10.26-2.75-17.57,.69-22.01,4.27,10.35-1.32,19.11-.92,19.11-.92Z" style="fill: none;"/>
          <path d="M1005.91,7.29s-8.76-.4-19.11,.92c-3.51,2.83-5.24,5.74-5.24,5.74-7.68,11.13-3.74,20.73,.15,26.25,5.86-6.92,16.06-14.4,32.73-14.18,0,0,12.49-.83,20.82,6.66,0,0-2.9-15.23-17.41-25-3.23-1.79-6.25-3-9.04-3.75,.95,1.31,1.47,3.15-2.9,3.35Z" style="fill: #e83828; mix-blend-mode: multiply;"/>
          <path d="M1007.58,2.6h0c4.19,1.49,7.33,3.25,9.1,4.32-2.66-1.66-5.67-3.14-9.11-4.32Z" style="fill: #f8b62d;"/>
          <path d="M1003.12,82.78c-7.96-2.56-23.98-8.94-28.24-19.85-25.56-13.93-24.76-21.4-24.76-21.4-.01-.59-.01-1.18,0-1.76-.27,3.7-.08,8.25,.52,11.55,0,0,3.65,27.48,33.41,34.24,0,0,5.09,1.15,11.54,.92,4.39-.93,6.56-2.62,7.53-3.69Z" style="fill: #e83828; mix-blend-mode: multiply;"/>
          <path d="M963.45,15.2c6.58-3.97,15.43-5.98,23.36-6.99,4.44-3.58,11.75-7.02,22.01-4.27-.53-.73-1.2-1.3-1.23-1.33-9.79-3.47-25.17-5.37-41.33,6.86,0,0-15.63,12.21-16.13,30.3,.12-1.61,.32-3.06,.62-4.17,4.15-15.32,12.7-20.4,12.7-20.4Z" style="fill: #fabe00;"/>
          <path d="M986.14,45.17s-2.2-1.82-4.42-4.97c-4.97,5.86-6.82,11.32-6.82,11.32-1.51,4.25-1.32,8.04,0,11.41,.21,.12,.42,.23,.64,.35,0,0,30.91,13.94,28.31,18.52,0,0-.19,.4-.71,.97-.97,1.07-3.14,2.77-7.53,3.69,1.41-.05,2.88-.17,4.38-.38,2.11-.35,4.75-.96,7.67-2.01,7.25-2.6,16.22-7.91,22.84-18.73,0,0-24.15-2.71-44.34-20.19Z" style="fill: #fabe00;"/>
          <path d="M1008.81,3.94c2.79,.75,5.81,1.95,9.04,3.75-.19-.13-.38-.26-.57-.39-.08-.05-.16-.1-.24-.15-.12-.07-.24-.14-.36-.22-1.77-1.07-4.91-2.83-9.1-4.32,.03,.02,.7,.59,1.23,1.33Z" style="fill: #e83828;"/>
          <path d="M974.89,62.93c-1.31-3.37-1.5-7.16,0-11.41,0,0,1.85-5.46,6.82-11.32-3.89-5.52-7.84-15.12-.15-26.25,0,0,1.73-2.91,5.24-5.74-7.92,1.01-16.77,3.02-23.36,6.99,0,0-8.55,5.08-12.7,20.4-.3,1.11-.5,2.56-.62,4.17-.01,.58-.01,1.17,0,1.76,0,0-.8,7.48,24.76,21.4Z" style="fill: #fabe00; mix-blend-mode: multiply;"/>
          <path d="M987.07,8.14c-.11,.02-.21,.03-.32,.04-3.51,2.83-5.24,5.74-5.24,5.74-7.69,11.13-3.74,20.73,.16,26.25,2.53-2.98,5.87-6.07,10.19-8.6-8.24-1.93-11.53-8.52-4.79-23.43Z" style="fill: #980014; opacity: .4;"/>
        </g>
        <g>
          <g>
            <path d="M1037.32,57.08l.99-3.12c1.47,.96,4.05,1.89,6.12,1.89,2.91,0,4.65-1.41,4.65-3.36,0-1.83-1.08-2.73-3.63-3.3l-2.4-.57c-2.88-.66-5.37-2.52-5.37-6.03s2.73-6.03,7.47-6.03c2.88,0,5.52,.93,6.78,1.86l-1.08,2.88c-1.26-.87-3.3-1.74-5.67-1.74s-4.02,1.11-4.02,2.79,1.14,2.79,3.33,3.3l2.28,.48c3.57,.87,5.76,2.46,5.76,6.09,0,3.96-3.24,6.78-7.92,6.78-2.76,0-5.73-1.02-7.29-1.92Z" style="fill: #e83828;"/>
            <path d="M1056.55,53.87v-8.58h-2.55v-2.79h2.55v-4.08h3.27v4.08h4.62v2.79h-4.62v8.07c0,1.56,.69,2.49,2.19,2.49,.75,0,2.1-.36,2.88-.87l.57,2.79c-.84,.57-2.64,1.05-4.35,1.05-2.55,0-4.56-1.38-4.56-4.95Z" style="fill: #e83828;"/>
            <path d="M1066.66,54.11c0-3.33,2.37-4.95,5.7-5.31l3.96-.45v-.54c0-2.04-1.35-2.88-3.72-2.88-1.32,0-3.3,.63-4.35,1.38-.33-.93-.6-1.86-.9-2.79,1.41-.9,3.9-1.56,6-1.56,3.48,0,6.21,1.68,6.21,5.4v11.22h-2.61l-.36-1.47c-.87,.99-3,1.8-4.68,1.8-2.91,0-5.25-1.47-5.25-4.8Zm9.66,.45v-3.72c-2.55,.3-6.33,.09-6.33,3.06,0,1.62,1.26,2.25,2.79,2.25,1.2,0,2.91-.84,3.54-1.59Z" style="fill: #e83828;"/>
            <path d="M1083.01,42.53h3.27v1.95c.9-1.38,2.46-2.28,4.05-2.28,1.14,0,2.28,.3,2.97,.78l-.9,3.15c-.51-.39-1.5-.75-2.37-.75-1.62,0-2.79,.78-3.75,2.19v11.01h-3.27v-16.05Z" style="fill: #e83828;"/>
            <path d="M1093.69,50.63v-.54c0-5.37,3.78-8.01,7.8-8.01,2.31,0,4.14,.66,5.19,1.5l-1.05,2.73c-.9-.69-2.28-1.29-3.87-1.29-2.34,0-4.56,1.95-4.56,4.95v.69c0,3.24,2.01,5.34,4.68,5.34,1.56,0,3.18-.66,3.99-1.23l.9,2.79c-.96,.75-3.24,1.44-5.31,1.44-4.41,0-7.77-3.06-7.77-8.37Z" style="fill: #e83828;"/>
            <path d="M1108.33,50.81v-.33c0-5.28,3.6-8.46,7.68-8.46,4.32,0,7.65,3.12,7.65,8.28v.33c0,5.16-3.63,8.43-7.68,8.43-4.44,0-7.65-3.21-7.65-8.25Zm11.85,.03v-.63c0-3.81-2.1-5.34-4.23-5.34-2.25,0-4.2,1.8-4.2,5.31v.63c0,3.87,2.19,5.43,4.29,5.43,2.22,0,4.14-1.86,4.14-5.4Z" style="fill: #e83828;"/>
            <path d="M1125.46,50.93v-.6c0-5.52,3.48-8.28,7.29-8.28,4.26,0,6.9,2.76,6.9,7.71v1.74h-10.71c.12,3.18,2.25,4.53,4.71,4.53,2.04,0,3.99-.78,4.98-1.5l.93,2.55c-1.05,.9-3.48,1.95-6.15,1.95-4.92,0-7.95-3.21-7.95-8.1Zm3.45-2.01h7.47c-.03-2.79-1.65-4.02-3.6-4.02-1.59,0-3.63,1.05-3.87,4.02Z" style="fill: #e83828;"/>
            <path d="M1146.27,50.48l-5.52-7.98h3.96l3.63,5.58,3.78-5.58h3.69l-5.43,7.95,5.91,8.13h-3.96l-3.99-5.82-3.93,5.82h-3.96l5.82-8.1Z" style="fill: #e83828;"/>
          </g>
          <path d="M1163.21,45.79c-2.74,0-4.95-2.21-4.95-4.95s2.21-4.96,4.95-4.96,4.95,2.23,4.95,4.96-2.22,4.95-4.95,4.95Zm0-9.23c-2.33,0-4.25,1.92-4.25,4.29s1.92,4.27,4.25,4.27,4.25-1.92,4.25-4.27-1.92-4.29-4.25-4.29Zm-1.84,1.1c.41-.08,1.03-.14,1.58-.14,.88,0,1.43,.16,1.83,.53,.32,.29,.49,.71,.49,1.21,0,.81-.5,1.36-1.13,1.63,.46,.19,.73,.66,.87,1.29,.21,.88,.35,1.5,.5,1.76h-.85c-.1-.19-.25-.73-.43-1.53-.16-.87-.5-1.21-1.26-1.23h-.78v2.77h-.82v-6.29Zm.82,2.9h.83c.86,0,1.43-.49,1.43-1.21,0-.83-.61-1.17-1.47-1.17-.38,0-.63,.01-.79,.06v2.32Z" style="fill: #e83828;"/>
        </g>
      </g>
      <g>
        <g>
          <path d="M1102.73,251.71s-40.9-9.78-32.79-32.57c0,0,8.74-25.92,39.55-25.5,0,0,12.49-.83,20.82,6.66,0,0-4.16-22.01-27.69-30.08,0,0,5.2,4.38-1.67,4.69,0,0-27.27-1.25-42.46,7.91,0,0-8.55,5.08-12.7,20.4-.99,3.65-.97,10.99-.1,15.72,0,0,3.65,27.48,33.41,34.24,0,0,12.9,2.91,23.62-1.46Z" style="fill: #f8b62d;"/>
          <path d="M1102.73,251.71s-40.9-9.78-32.79-32.57c0,0,8.74-25.92,39.55-25.5,0,0,12.49-.83,20.82,6.66,0,0-4.16-22.01-27.69-30.08,0,0,5.2,4.38-1.67,4.69,0,0-27.27-1.25-42.46,7.91,0,0-8.55,5.08-12.7,20.4-.99,3.65-.97,10.99-.1,15.72,0,0,3.65,27.48,33.41,34.24,0,0,12.9,2.91,23.62-1.46Z" style="fill: #f8b62d;"/>
          <path d="M1098.17,250.39c.52-.58,.71-.97,.71-.97,2.6-4.58-28.31-18.52-28.31-18.52-.22-.12-.42-.23-.63-.35,4.25,10.91,20.27,17.29,28.23,19.85Z" style="fill: none;"/>
          <path d="M1100.97,174.9c4.37-.2,3.85-2.04,2.9-3.35-10.26-2.75-17.57,.69-22.01,4.27,10.35-1.32,19.11-.92,19.11-.92Z" style="fill: none;"/>
          <path d="M1100.97,174.9s-8.76-.4-19.11,.92c-3.51,2.83-5.24,5.74-5.24,5.74-7.69,11.13-3.74,20.73,.15,26.25,5.86-6.92,16.06-14.4,32.73-14.18,0,0,12.49-.83,20.82,6.66,0,0-2.9-15.23-17.41-25-3.23-1.79-6.25-3-9.04-3.75,.95,1.31,1.47,3.15-2.9,3.35Z" style="fill: #e83828; mix-blend-mode: multiply;"/>
          <path d="M1102.63,170.21h0c4.19,1.49,7.33,3.25,9.1,4.32-2.66-1.66-5.67-3.14-9.11-4.32Z" style="fill: #f8b62d;"/>
          <path d="M1098.17,250.39c-7.96-2.56-23.98-8.94-28.23-19.85-25.57-13.93-24.76-21.4-24.76-21.4-.01-.59-.01-1.18,0-1.76-.27,3.7-.08,8.25,.52,11.55,0,0,3.65,27.48,33.41,34.24,0,0,5.09,1.15,11.54,.92,4.39-.93,6.56-2.62,7.53-3.69Z" style="fill: #e83828; mix-blend-mode: multiply;"/>
          <path d="M1058.5,182.81c6.58-3.97,15.44-5.98,23.36-6.99,4.44-3.58,11.75-7.02,22.01-4.27-.53-.73-1.2-1.3-1.23-1.33-9.79-3.47-25.17-5.37-41.33,6.86,0,0-15.63,12.21-16.13,30.3,.12-1.61,.32-3.06,.62-4.17,4.15-15.32,12.7-20.4,12.7-20.4Z" style="fill: #fabe00;"/>
          <path d="M1081.19,212.78s-2.2-1.82-4.43-4.97c-4.97,5.86-6.82,11.32-6.82,11.32-1.51,4.25-1.32,8.04,0,11.41,.21,.12,.42,.23,.63,.35,0,0,30.91,13.94,28.31,18.52,0,0-.19,.4-.71,.97-.96,1.07-3.14,2.77-7.53,3.69,1.41-.05,2.88-.17,4.38-.38,2.11-.35,4.75-.96,7.67-2.01,7.25-2.6,16.22-7.91,22.84-18.73,0,0-24.15-2.71-44.34-20.19Z" style="fill: #fabe00;"/>
          <path d="M1103.87,171.54c2.79,.75,5.8,1.95,9.04,3.75-.19-.13-.38-.26-.57-.39-.08-.05-.16-.1-.24-.15-.12-.07-.24-.14-.36-.22-1.77-1.07-4.91-2.83-9.1-4.32,.03,.02,.7,.59,1.23,1.33Z" style="fill: #e83828;"/>
          <path d="M1069.94,230.54c-1.31-3.37-1.51-7.16,0-11.41,0,0,1.85-5.46,6.82-11.32-3.89-5.52-7.84-15.12-.15-26.25,0,0,1.73-2.91,5.24-5.74-7.92,1.01-16.77,3.02-23.36,6.99,0,0-8.55,5.08-12.7,20.4-.3,1.11-.5,2.56-.62,4.17-.01,.58-.01,1.17,0,1.76,0,0-.8,7.48,24.76,21.4Z" style="fill: #fabe00; mix-blend-mode: multiply;"/>
          <path d="M1082.12,175.74c-.11,.02-.21,.03-.31,.04-3.51,2.83-5.24,5.74-5.24,5.74-7.69,11.13-3.74,20.73,.16,26.25,2.53-2.98,5.87-6.07,10.19-8.6-8.24-1.93-11.53-8.52-4.79-23.43Z" style="fill: #980014; opacity: .4;"/>
        </g>
        <g>
          <g>
            <path d="M1042.69,276.79l.74-2.32c1.09,.71,3.02,1.41,4.56,1.41,2.17,0,3.46-1.05,3.46-2.5,0-1.36-.8-2.03-2.7-2.46l-1.79-.42c-2.14-.49-4-1.88-4-4.49s2.03-4.49,5.56-4.49c2.14,0,4.11,.69,5.05,1.38l-.8,2.14c-.94-.65-2.46-1.3-4.22-1.3s-2.99,.83-2.99,2.08,.85,2.08,2.48,2.46l1.7,.36c2.66,.65,4.29,1.83,4.29,4.53,0,2.95-2.41,5.05-5.9,5.05-2.06,0-4.27-.76-5.43-1.43Z" style="fill: #e83828;"/>
            <path d="M1057.01,274.4v-6.39h-1.9v-2.08h1.9v-3.04h2.43v3.04h3.44v2.08h-3.44v6.01c0,1.16,.51,1.85,1.63,1.85,.56,0,1.56-.27,2.14-.65l.42,2.08c-.62,.42-1.97,.78-3.24,.78-1.9,0-3.39-1.03-3.39-3.69Z" style="fill: #e83828;"/>
            <path d="M1064.54,274.58c0-2.48,1.76-3.69,4.25-3.95l2.95-.33v-.4c0-1.52-1-2.14-2.77-2.14-.98,0-2.46,.47-3.24,1.03-.25-.69-.45-1.38-.67-2.08,1.05-.67,2.9-1.16,4.47-1.16,2.59,0,4.62,1.25,4.62,4.02v8.35h-1.94l-.27-1.09c-.65,.74-2.23,1.34-3.49,1.34-2.17,0-3.91-1.09-3.91-3.57Zm7.19,.33v-2.77c-1.9,.22-4.71,.07-4.71,2.28,0,1.21,.94,1.67,2.08,1.67,.89,0,2.17-.62,2.64-1.18Z" style="fill: #e83828;"/>
            <path d="M1076.71,265.95h2.43v1.45c.67-1.03,1.83-1.7,3.02-1.7,.85,0,1.7,.22,2.21,.58l-.67,2.35c-.38-.29-1.12-.56-1.76-.56-1.21,0-2.08,.58-2.79,1.63v8.2h-2.43v-11.95Z" style="fill: #e83828;"/>
            <path d="M1084.66,271.99v-.4c0-4,2.81-5.96,5.81-5.96,1.72,0,3.08,.49,3.87,1.12l-.78,2.03c-.67-.51-1.7-.96-2.88-.96-1.74,0-3.4,1.45-3.4,3.69v.51c0,2.41,1.5,3.98,3.49,3.98,1.16,0,2.37-.49,2.97-.92l.67,2.08c-.71,.56-2.41,1.07-3.95,1.07-3.28,0-5.79-2.28-5.79-6.23Z" style="fill: #e83828;"/>
            <path d="M1095.56,272.12v-.25c0-3.93,2.68-6.3,5.72-6.3,3.22,0,5.7,2.32,5.7,6.17v.25c0,3.84-2.7,6.28-5.72,6.28-3.31,0-5.7-2.39-5.7-6.14Zm8.82,.02v-.47c0-2.84-1.56-3.98-3.15-3.98-1.67,0-3.13,1.34-3.13,3.95v.47c0,2.88,1.63,4.04,3.19,4.04,1.65,0,3.08-1.38,3.08-4.02Z" style="fill: #e83828;"/>
            <path d="M1108.31,272.21v-.45c0-4.11,2.59-6.16,5.43-6.16,3.17,0,5.14,2.05,5.14,5.74v1.3h-7.97c.09,2.37,1.68,3.37,3.51,3.37,1.52,0,2.97-.58,3.71-1.12l.69,1.9c-.78,.67-2.59,1.45-4.58,1.45-3.66,0-5.92-2.39-5.92-6.03Zm2.57-1.5h5.56c-.02-2.08-1.23-2.99-2.68-2.99-1.18,0-2.7,.78-2.88,2.99Z" style="fill: #e83828;"/>
            <path d="M1123.81,271.87l-4.11-5.94h2.95l2.7,4.16,2.81-4.16h2.75l-4.04,5.92,4.4,6.05h-2.95l-2.97-4.33-2.93,4.33h-2.95l4.33-6.03Z" style="fill: #e83828;"/>
          </g>
          <path d="M1136.42,268.38c-2.04,0-3.69-1.64-3.69-3.69s1.64-3.7,3.69-3.7,3.69,1.66,3.69,3.7-1.65,3.69-3.69,3.69Zm0-6.88c-1.74,0-3.17,1.43-3.17,3.19s1.43,3.18,3.17,3.18,3.17-1.43,3.17-3.18-1.43-3.19-3.17-3.19Zm-1.37,.82c.31-.06,.77-.1,1.17-.1,.66,0,1.06,.12,1.36,.39,.24,.21,.37,.53,.37,.9,0,.6-.38,1.01-.84,1.22,.34,.14,.54,.49,.65,.96,.15,.66,.26,1.12,.38,1.31h-.63c-.08-.14-.19-.54-.32-1.14-.12-.65-.38-.9-.94-.92h-.58v2.06h-.61v-4.68Zm.61,2.16h.62c.64,0,1.06-.37,1.06-.9,0-.62-.45-.87-1.1-.87-.28,0-.47,0-.59,.04v1.73Z" style="fill: #e83828;"/>
        </g>
      </g>
      <g>
        <g>
          <path d="M950.78,425.25l2.26-7.12c3.35,2.19,9.24,4.31,13.96,4.31,6.64,0,10.61-3.22,10.61-7.66,0-4.17-2.46-6.23-8.28-7.53l-5.47-1.3c-6.57-1.5-12.25-5.75-12.25-13.75s6.23-13.75,17.04-13.75c6.57,0,12.59,2.12,15.46,4.24l-2.46,6.57c-2.87-1.98-7.53-3.97-12.93-3.97s-9.17,2.53-9.17,6.36,2.6,6.36,7.59,7.53l5.2,1.09c8.14,1.98,13.14,5.61,13.14,13.89,0,9.03-7.39,15.46-18.06,15.46-6.29,0-13.07-2.33-16.63-4.38Z" style="fill: #e83828;"/>
          <path d="M994.64,417.93v-19.57h-5.82v-6.36h5.82v-9.31h7.46v9.31h10.54v6.36h-10.54v18.41c0,3.56,1.57,5.68,5,5.68,1.71,0,4.79-.82,6.57-1.98l1.3,6.36c-1.92,1.3-6.02,2.4-9.92,2.4-5.82,0-10.4-3.15-10.4-11.29Z" style="fill: #e83828;"/>
          <path d="M1017.69,418.47c0-7.59,5.41-11.29,13-12.11l9.03-1.03v-1.23c0-4.65-3.08-6.57-8.48-6.57-3.01,0-7.53,1.44-9.92,3.15-.75-2.12-1.37-4.24-2.05-6.36,3.22-2.05,8.89-3.56,13.68-3.56,7.94,0,14.16,3.83,14.16,12.32v25.59h-5.95l-.82-3.35c-1.98,2.26-6.84,4.11-10.67,4.11-6.64,0-11.97-3.35-11.97-10.95Zm22.03,1.03v-8.48c-5.82,.68-14.44,.21-14.44,6.98,0,3.7,2.87,5.13,6.36,5.13,2.74,0,6.64-1.92,8.07-3.63Z" style="fill: #e83828;"/>
          <path d="M1054.98,392.06h7.46v4.45c2.05-3.15,5.61-5.2,9.24-5.2,2.6,0,5.2,.68,6.77,1.78l-2.05,7.18c-1.16-.89-3.42-1.71-5.41-1.71-3.7,0-6.36,1.78-8.55,4.99v25.11h-7.46v-36.6Z" style="fill: #e83828;"/>
          <path d="M1118.82,410.95v-.75c0-12.04,8.21-19.29,17.52-19.29,9.85,0,17.45,7.12,17.45,18.88v.75c0,11.77-8.28,19.23-17.52,19.23-10.13,0-17.45-7.32-17.45-18.82Zm27.03,.07v-1.44c0-8.69-4.79-12.18-9.65-12.18-5.13,0-9.58,4.11-9.58,12.11v1.44c0,8.83,4.99,12.38,9.78,12.38,5.06,0,9.44-4.24,9.44-12.32Z" style="fill: #e83828;"/>
          <path d="M1157.89,411.22v-1.37c0-12.59,7.94-18.88,16.63-18.88,9.72,0,15.74,6.29,15.74,17.58v3.97h-24.43c.27,7.25,5.13,10.33,10.74,10.33,4.65,0,9.1-1.78,11.36-3.42l2.12,5.82c-2.39,2.05-7.94,4.45-14.03,4.45-11.22,0-18.13-7.32-18.13-18.47Zm7.87-4.58h17.04c-.07-6.36-3.76-9.17-8.21-9.17-3.63,0-8.28,2.4-8.83,9.17Z" style="fill: #e83828;"/>
          <path d="M1205.38,410.19l-12.59-18.2h9.03l8.28,12.73,8.62-12.73h8.42l-12.38,18.13,13.48,18.54h-9.03l-9.1-13.27-8.96,13.27h-9.03l13.27-18.47Z" style="fill: #e83828;"/>
        </g>
        <g>
          <path d="M1104.4,429.55s-19.73-4.72-15.82-15.71c0,0,4.22-12.5,19.08-12.31,0,0,6.02-.4,10.04,3.21,0,0-2.01-10.62-13.36-14.51,0,0,2.51,2.11-.8,2.26,0,0-13.16-.6-20.48,3.82,0,0-4.13,2.45-6.13,9.84-.48,1.76-.47,5.3-.05,7.58,0,0,1.76,13.26,16.12,16.52,0,0,6.22,1.41,11.4-.7Z" style="fill: #f8b62d;"/>
          <path d="M1104.4,429.55s-19.73-4.72-15.82-15.71c0,0,4.22-12.5,19.08-12.31,0,0,6.02-.4,10.04,3.21,0,0-2.01-10.62-13.36-14.51,0,0,2.51,2.11-.8,2.26,0,0-13.16-.6-20.48,3.82,0,0-4.13,2.45-6.13,9.84-.48,1.76-.47,5.3-.05,7.58,0,0,1.76,13.26,16.12,16.52,0,0,6.22,1.41,11.4-.7Z" style="fill: #f8b62d;"/>
          <path d="M1102.2,428.91c.25-.28,.34-.47,.34-.47,1.25-2.21-13.66-8.94-13.66-8.94-.11-.06-.2-.11-.31-.17,2.05,5.26,9.78,8.34,13.62,9.57Z" style="fill: none;"/>
          <path d="M1103.55,392.5c2.11-.1,1.86-.98,1.4-1.62-4.95-1.33-8.47,.33-10.62,2.06,4.99-.64,9.22-.44,9.22-.44Z" style="fill: none;"/>
          <path d="M1103.55,392.5s-4.22-.19-9.22,.44c-1.69,1.37-2.53,2.77-2.53,2.77-3.71,5.37-1.8,10,.07,12.66,2.83-3.34,7.75-6.95,15.79-6.84,0,0,6.02-.4,10.04,3.21,0,0-1.4-7.35-8.4-12.06-1.56-.86-3.02-1.44-4.36-1.81,.46,.64,.71,1.52-1.4,1.62Z" style="fill: #e83828; mix-blend-mode: multiply;"/>
          <path d="M1104.35,390.24h0c2.02,.72,3.54,1.57,4.39,2.08-1.28-.8-2.73-1.51-4.39-2.08Z" style="fill: #f8b62d;"/>
          <path d="M1102.2,428.91c-3.84-1.24-11.57-4.31-13.62-9.57-12.33-6.72-11.95-10.33-11.95-10.33,0-.29,0-.57,0-.85-.13,1.79-.04,3.98,.25,5.57,0,0,1.76,13.26,16.12,16.52,0,0,2.45,.55,5.57,.44,2.12-.45,3.17-1.26,3.63-1.78Z" style="fill: #e83828; mix-blend-mode: multiply;"/>
          <path d="M1083.06,396.31c3.17-1.91,7.45-2.89,11.27-3.37,2.14-1.73,5.66-3.39,10.62-2.06-.26-.35-.58-.63-.59-.64-4.72-1.67-12.14-2.59-19.94,3.31,0,0-7.54,5.89-7.78,14.62,.06-.78,.16-1.48,.3-2.01,2-7.39,6.13-9.84,6.13-9.84Z" style="fill: #fabe00;"/>
          <path d="M1094.01,410.77s-1.06-.88-2.14-2.4c-2.4,2.83-3.29,5.46-3.29,5.46-.73,2.05-.64,3.88,0,5.51,.1,.05,.2,.11,.31,.17,0,0,14.91,6.73,13.66,8.94,0,0-.09,.19-.34,.47-.46,.52-1.51,1.34-3.63,1.78,.68-.02,1.39-.08,2.11-.18,1.02-.17,2.29-.47,3.7-.97,3.5-1.25,7.82-3.81,11.02-9.03,0,0-11.65-1.31-21.39-9.74Z" style="fill: #fabe00;"/>
          <path d="M1104.95,390.88c1.35,.37,2.8,.95,4.36,1.81-.09-.06-.18-.12-.27-.19-.04-.02-.08-.05-.12-.07-.05-.04-.11-.07-.17-.11-.85-.52-2.37-1.37-4.39-2.08,.01,.01,.33,.29,.59,.64Z" style="fill: #e83828;"/>
          <path d="M1088.58,419.34c-.63-1.63-.73-3.46,0-5.51,0,0,.89-2.63,3.29-5.46-1.88-2.66-3.78-7.3-.07-12.66,0,0,.84-1.4,2.53-2.77-3.82,.49-8.09,1.46-11.27,3.37,0,0-4.13,2.45-6.13,9.84-.14,.54-.24,1.24-.3,2.01,0,.28,0,.56,0,.85,0,0-.39,3.61,11.95,10.33Z" style="fill: #fabe00; mix-blend-mode: multiply;"/>
          <path d="M1094.46,392.91c-.05,0-.1,.01-.15,.02-1.69,1.37-2.53,2.77-2.53,2.77-3.71,5.37-1.8,10,.08,12.66,1.22-1.44,2.83-2.93,4.91-4.15-3.97-.93-5.56-4.1-2.31-11.3Z" style="fill: #980014; opacity: .4;"/>
        </g>
        <path d="M1237.61,395.76c-4.19,0-7.55-3.37-7.55-7.55s3.37-7.57,7.55-7.57,7.55,3.4,7.55,7.57-3.38,7.55-7.55,7.55Zm0-14.09c-3.56,0-6.49,2.93-6.49,6.54s2.93,6.52,6.49,6.52,6.49-2.93,6.49-6.52-2.93-6.54-6.49-6.54Zm-2.81,1.67c.63-.12,1.57-.21,2.41-.21,1.34,0,2.18,.24,2.79,.8,.49,.44,.75,1.08,.75,1.85,0,1.24-.77,2.08-1.73,2.49,.7,.3,1.12,1.01,1.33,1.97,.31,1.34,.54,2.28,.77,2.69h-1.29c-.16-.3-.38-1.12-.66-2.34-.24-1.33-.77-1.85-1.92-1.88h-1.19v4.22h-1.26v-9.59Zm1.26,4.43h1.27c1.31,0,2.18-.75,2.18-1.85,0-1.27-.92-1.78-2.25-1.78-.58,0-.96,.02-1.2,.09v3.54Z" style="fill: #e83828;"/>
      </g>
      <g>
        <g>
          <path d="M40.55,402.01c-1.69-1.17-3.64-2.09-5.8-2.75-2.09-.64-4.24-1.23-6.41-1.76-1.58-.38-3.12-.8-4.58-1.23-1.4-.42-2.65-.97-3.7-1.62-1.01-.62-1.82-1.42-2.41-2.38-.58-.93-.87-2.15-.87-3.62,0-1.36,.23-2.6,.69-3.7,.44-1.07,1.14-2,2.05-2.76,.93-.77,2.14-1.38,3.58-1.8,1.47-.43,3.24-.65,5.25-.65,2.72,.03,5.31,.34,7.69,.93,2.4,.6,4.76,1.38,7.01,2.33l1.13,.48v-8.04l-.49-.21c-2.17-.93-4.59-1.69-7.19-2.27-2.61-.58-5.46-.87-8.47-.87-2.66,0-5.21,.33-7.58,.98-2.39,.66-4.54,1.7-6.37,3.09-1.86,1.4-3.35,3.2-4.43,5.33-1.09,2.14-1.64,4.72-1.64,7.67s.53,5.24,1.58,7.09c1.04,1.85,2.44,3.38,4.16,4.55,1.68,1.15,3.62,2.06,5.75,2.71,2.07,.63,4.22,1.2,6.39,1.7,1.61,.38,3.17,.8,4.63,1.24,1.41,.42,2.66,.97,3.73,1.63,1.02,.64,1.85,1.45,2.46,2.42,.59,.95,.9,2.18,.9,3.68,0,1.87-.36,3.43-1.06,4.65-.7,1.21-1.66,2.18-2.86,2.88-1.24,.73-2.71,1.25-4.37,1.57-2.74,.51-5.63,.67-9.12,.24-1.32-.16-2.65-.39-3.96-.68-1.3-.28-2.57-.63-3.78-1.04-1.2-.4-2.3-.85-3.26-1.33l-1.18-.59v7.97l.39,.24c.69,.42,1.6,.83,2.77,1.24,1.13,.4,2.41,.76,3.81,1.07,1.39,.31,2.87,.56,4.41,.74,1.54,.18,3.07,.28,4.52,.28,3.18,0,6.16-.34,8.84-1,2.72-.67,5.11-1.72,7.11-3.12,2.03-1.41,3.64-3.24,4.79-5.45,1.15-2.2,1.73-4.84,1.73-7.84s-.54-5.42-1.62-7.34c-1.07-1.9-2.48-3.47-4.21-4.66Z" style="fill: #e83828;"/>
          <path d="M70.52,423.97c-2.2,.32-4.17,.26-5.53-.23-.77-.28-1.4-.66-1.88-1.14-.48-.47-.83-1.05-1.05-1.7-.23-.68-.35-1.45-.35-2.27v-22.21h11.81v-7.16h-11.81v-10.81h-8.08v10.81h-7.61v7.16h7.61v23.21c0,1.75,.27,3.37,.8,4.81,.54,1.47,1.37,2.75,2.47,3.78,1.09,1.03,2.47,1.84,4.1,2.38,1.6,.54,3.51,.81,5.66,.81h.01c1.61-.03,3.02-.14,4.2-.35,1.2-.2,2.09-.42,2.7-.67l.51-.21v-7.03l-1.03,.29c-.77,.21-1.62,.39-2.54,.52Z" style="fill: #e83828;"/>
          <path d="M106.54,396.41c-1.18-2.47-3.13-4.48-5.81-5.97-2.65-1.48-6.08-2.22-10.19-2.22-1.12,0-2.27,.06-3.41,.17-1.13,.11-2.23,.28-3.25,.49-1.02,.21-2.01,.47-2.93,.77-.93,.3-1.76,.63-2.46,.98l-.45,.22v7.1l1.11-.42c1.7-.65,3.43-1.16,5.13-1.52,1.7-.36,3.54-.54,5.46-.54,2.54,0,4.55,.41,6.01,1.21,1.43,.79,2.49,1.79,3.12,2.97,.29,.56,.5,1.22,.63,1.96,.13,.79,.2,1.7,.2,2.74v1.65c-1.16-.37-2.46-.7-3.85-.96-1.79-.34-3.75-.53-5.85-.55-2.24,0-4.32,.3-6.18,.91-1.88,.61-3.52,1.51-4.87,2.65-1.36,1.15-2.43,2.58-3.19,4.23-.75,1.65-1.13,3.54-1.13,5.62s.34,4,1.02,5.67c.68,1.68,1.64,3.13,2.88,4.3,1.23,1.17,2.71,2.07,4.41,2.67,1.68,.6,3.54,.9,5.53,.9,1.47,0,2.88-.16,4.18-.48,1.3-.32,2.51-.75,3.62-1.29,1.1-.54,2.09-1.16,2.94-1.85,.39-.32,.75-.64,1.09-.96l.57,3.54h6.92v-27.18c0-1.32-.09-2.54-.28-3.65-.19-1.14-.52-2.19-.96-3.15Zm-6.83,16.44v6.93c-.28,.27-.66,.61-1.14,1.02-.61,.52-1.37,1.05-2.25,1.58-.87,.52-1.88,.98-3.01,1.36-1.92,.65-4.33,.78-6.3,.16-.81-.26-1.52-.65-2.1-1.17-.58-.51-1.05-1.17-1.38-1.97-.34-.81-.52-1.78-.52-2.88,0-2.16,.65-3.7,1.99-4.71,1.39-1.05,3.38-1.58,5.92-1.58,1.9,.03,3.66,.19,5.23,.49,1.34,.25,2.53,.52,3.56,.78Z" style="fill: #e83828;"/>
          <path d="M136.94,388.3c-.24-.03-.51-.05-.83-.07-1.97-.09-3.76,.11-5.46,.57-1.45,.39-2.8,.94-4.02,1.64-1.22,.7-2.33,1.52-3.3,2.45-.53,.5-1.01,1.03-1.45,1.58l-1.04-5.21h-6.48v41.13h8.08v-28.1c.62-.97,1.39-1.83,2.29-2.55,.98-.79,2.09-1.45,3.31-1.99,1.22-.54,2.56-.95,3.96-1.22,1.41-.26,2.87-.4,4.34-.4h1.32v-7.74l-.72-.09Z" style="fill: #e83828;"/>
        </g>
        <path d="M176.85,409.15c0,13.6-11.03,24.63-24.63,24.63s-24.63-11.03-24.63-24.63,11.03-24.63,24.63-24.63,24.63,11.03,24.63,24.63Z" style="fill: #fff;"/>
        <polygon points="246.92 389.24 256.03 389.24 289.44 430.24 280.32 430.24 246.92 389.24" style="fill: #e83828;"/>
        <path d="M234.3,431.29c-14.63,0-22.46-10.6-22.46-21.6,0-11.71,8.38-21.52,21.28-21.52s21.59,9.73,21.59,24.29h-35.28c1.11,7.03,6.8,12.18,14.79,12.18,0,0,11.68,1.36,20.75-7.71l22.57-27.69h9.11l-26.21,32.17c-11.87,11.87-26.13,9.88-26.13,9.88Zm12.34-24.68c-.71-6.8-6.25-11.79-13.6-11.79-8.7,0-12.9,6.17-13.61,11.79h27.21Z" style="fill: #e83828;"/>
        <path d="M195.93,388.18c12.98,0,22.31,9.97,22.31,21.6s-8.86,21.52-22.31,21.52-22.31-9.73-22.31-21.52,9.33-21.6,22.31-21.6Zm-14.71,21.6c0,7.91,6.8,14.87,14.71,14.87s14.72-6.96,14.72-14.87c0-8.55-6.8-14.95-14.72-14.95s-14.71,6.41-14.71,14.95Z" style="fill: #e83828;"/>
        <g>
          <path d="M159.06,430.62s-20.6-4.93-16.51-16.41c0,0,4.41-13.05,19.92-12.85,0,0,6.29-.42,10.48,3.36,0,0-2.1-11.08-13.94-15.15,0,0,2.62,2.2-.84,2.36,0,0-13.73-.63-21.38,3.98,0,0-4.31,2.56-6.4,10.27-.5,1.84-.49,5.54-.05,7.91,0,0,1.84,13.84,16.83,17.25,0,0,6.5,1.47,11.9-.73Z" style="fill: #f8b62d;"/>
          <path d="M159.06,430.62s-20.6-4.93-16.51-16.41c0,0,4.41-13.05,19.92-12.85,0,0,6.29-.42,10.48,3.36,0,0-2.1-11.08-13.94-15.15,0,0,2.62,2.2-.84,2.36,0,0-13.73-.63-21.38,3.98,0,0-4.31,2.56-6.4,10.27-.5,1.84-.49,5.54-.05,7.91,0,0,1.84,13.84,16.83,17.25,0,0,6.5,1.47,11.9-.73Z" style="fill: #f8b62d;"/>
          <path d="M156.76,429.95c.26-.29,.36-.49,.36-.49,1.31-2.31-14.26-9.33-14.26-9.33-.11-.06-.21-.12-.32-.17,2.14,5.49,10.21,8.7,14.22,9.99Z" style="fill: none;"/>
          <path d="M158.17,391.93c2.2-.1,1.94-1.03,1.46-1.69-5.17-1.38-8.85,.35-11.08,2.15,5.21-.66,9.62-.46,9.62-.46Z" style="fill: none;"/>
          <path d="M158.17,391.93s-4.41-.2-9.62,.46c-1.77,1.42-2.64,2.89-2.64,2.89-3.87,5.6-1.88,10.44,.08,13.22,2.95-3.48,8.09-7.25,16.49-7.14,0,0,6.29-.42,10.48,3.36,0,0-1.46-7.67-8.77-12.59-1.63-.9-3.15-1.51-4.55-1.89,.48,.67,.74,1.59-1.46,1.69Z" style="fill: #e83828; mix-blend-mode: multiply;"/>
          <path d="M159.01,389.57h0c2.11,.75,3.69,1.63,4.58,2.17-1.34-.83-2.86-1.58-4.59-2.17Z" style="fill: #f8b62d;"/>
          <path d="M156.76,429.95c-4.01-1.29-12.08-4.5-14.22-9.99-12.87-7.01-12.47-10.78-12.47-10.78,0-.3,0-.59,0-.89-.14,1.87-.04,4.16,.26,5.81,0,0,1.84,13.84,16.83,17.25,0,0,2.56,.58,5.81,.46,2.21-.47,3.3-1.32,3.79-1.86Z" style="fill: #e83828; mix-blend-mode: multiply;"/>
          <path d="M136.78,395.92c3.31-2,7.77-3.01,11.76-3.52,2.24-1.81,5.91-3.54,11.08-2.15-.27-.37-.6-.65-.62-.67-4.93-1.75-12.68-2.7-20.82,3.46,0,0-7.87,6.15-8.12,15.26,.06-.81,.16-1.54,.31-2.1,2.09-7.71,6.4-10.27,6.4-10.27Z" style="fill: #fabe00;"/>
          <path d="M148.21,411.01s-1.11-.92-2.23-2.5c-2.5,2.95-3.43,5.7-3.43,5.7-.76,2.14-.66,4.05,0,5.75,.11,.06,.21,.12,.32,.17,0,0,15.57,7.02,14.26,9.33,0,0-.09,.2-.36,.49-.49,.54-1.58,1.4-3.79,1.86,.71-.03,1.45-.08,2.2-.19,1.06-.18,2.39-.49,3.87-1.02,3.65-1.31,8.17-3.98,11.5-9.43,0,0-12.16-1.36-22.33-10.17Z" style="fill: #fabe00;"/>
          <path d="M159.63,390.24c1.41,.38,2.92,.99,4.55,1.89-.1-.06-.19-.13-.29-.19-.04-.02-.08-.05-.12-.08-.06-.04-.12-.07-.18-.11-.89-.54-2.48-1.43-4.58-2.17,.02,.01,.35,.3,.62,.67Z" style="fill: #e83828;"/>
          <path d="M142.54,419.96c-.66-1.7-.76-3.61,0-5.75,0,0,.93-2.75,3.43-5.7-1.96-2.78-3.95-7.62-.08-13.22,0,0,.87-1.47,2.64-2.89-3.99,.51-8.45,1.52-11.76,3.52,0,0-4.31,2.56-6.4,10.27-.15,.56-.25,1.29-.31,2.1,0,.29,0,.59,0,.89,0,0-.41,3.77,12.47,10.78Z" style="fill: #fabe00; mix-blend-mode: multiply;"/>
          <path d="M148.68,392.36c-.05,0-.1,.01-.16,.02-1.77,1.43-2.64,2.89-2.64,2.89-3.87,5.61-1.88,10.44,.08,13.22,1.27-1.5,2.96-3.06,5.13-4.33-4.15-.97-5.81-4.29-2.41-11.8Z" style="fill: #980014; opacity: .4;"/>
        </g>
        <path d="M297.61,395.76c-4.19,0-7.55-3.37-7.55-7.55s3.37-7.57,7.55-7.57,7.55,3.4,7.55,7.57-3.38,7.55-7.55,7.55Zm0-14.09c-3.56,0-6.49,2.93-6.49,6.54s2.93,6.52,6.49,6.52,6.49-2.93,6.49-6.52-2.93-6.54-6.49-6.54Zm-2.81,1.67c.63-.12,1.57-.21,2.41-.21,1.34,0,2.18,.24,2.79,.8,.49,.44,.75,1.08,.75,1.85,0,1.24-.77,2.08-1.73,2.49,.7,.3,1.12,1.01,1.33,1.97,.31,1.34,.54,2.28,.77,2.69h-1.29c-.16-.3-.38-1.12-.66-2.34-.24-1.33-.77-1.85-1.92-1.88h-1.19v4.22h-1.26v-9.59Zm1.26,4.43h1.27c1.31,0,2.18-.75,2.18-1.85,0-1.27-.92-1.78-2.25-1.78-.57,0-.96,.02-1.2,.09v3.54Z" style="fill: #e83828;"/>
      </g>
    </g>
  </g>
</svg>