<?xml version="1.0" encoding="UTF-8"?>
<svg xmlns="http://www.w3.org/2000/svg" viewBox="0 0 234.5 86.51">
  <defs>
    <style>
      .cls-1 {
        fill: none;
      }

      .cls-2 {
        fill: #f8b62d;
      }

      .cls-3, .cls-4 {
        fill: #fabe00;
      }

      .cls-5 {
        fill: #fff;
      }

      .cls-6, .cls-7 {
        fill: #e83828;
      }

      .cls-7, .cls-4 {
        mix-blend-mode: multiply;
      }

      .cls-8 {
        isolation: isolate;
      }

      .cls-9 {
        fill: #980014;
        opacity: .4;
      }
    </style>
  </defs>
  <g class="cls-8">
    <g id="_레이어_2" data-name="레이어 2">
      <g id="_레이어_1-2" data-name="레이어 1">
        <g>
          <g>
            <path class="cls-2" d="M57.68,84.1s-40.9-9.78-32.79-32.57c0,0,8.74-25.92,39.55-25.5,0,0,12.49-.83,20.82,6.66,0,0-4.17-22.01-27.69-30.08,0,0,5.2,4.38-1.67,4.69,0,0-27.27-1.25-42.46,7.91,0,0-8.55,5.08-12.7,20.4-.99,3.65-.97,10.99-.1,15.72,0,0,3.65,27.48,33.41,34.24,0,0,12.91,2.91,23.63-1.46Z"/>
            <path class="cls-2" d="M57.68,84.1s-40.9-9.78-32.79-32.57c0,0,8.74-25.92,39.55-25.5,0,0,12.49-.83,20.82,6.66,0,0-4.17-22.01-27.69-30.08,0,0,5.2,4.38-1.67,4.69,0,0-27.27-1.25-42.46,7.91,0,0-8.55,5.08-12.7,20.4-.99,3.65-.97,10.99-.1,15.72,0,0,3.65,27.48,33.41,34.24,0,0,12.91,2.91,23.63-1.46Z"/>
            <path class="cls-1" d="M53.12,82.78c.52-.58,.71-.97,.71-.97,2.6-4.58-28.31-18.52-28.31-18.52-.22-.12-.42-.23-.64-.35,4.25,10.91,20.27,17.29,28.24,19.85Z"/>
            <path class="cls-1" d="M55.91,7.29c4.37-.2,3.85-2.04,2.9-3.35-10.26-2.75-17.57,.69-22.01,4.27,10.35-1.32,19.11-.92,19.11-.92Z"/>
            <path class="cls-7" d="M55.91,7.29s-8.76-.4-19.11,.92c-3.51,2.83-5.24,5.74-5.24,5.74-7.68,11.13-3.74,20.73,.15,26.25,5.86-6.92,16.06-14.4,32.73-14.18,0,0,12.49-.83,20.82,6.66,0,0-2.9-15.23-17.41-25-3.23-1.79-6.25-3-9.04-3.75,.95,1.31,1.47,3.15-2.9,3.35Z"/>
            <path class="cls-2" d="M57.58,2.6h0c4.19,1.49,7.33,3.25,9.1,4.32-2.66-1.66-5.67-3.14-9.11-4.32Z"/>
            <path class="cls-7" d="M53.12,82.78c-7.96-2.56-23.98-8.94-28.24-19.85C-.68,49.01,.12,41.53,.12,41.53c-.01-.59-.01-1.18,0-1.76-.27,3.7-.08,8.25,.52,11.55,0,0,3.65,27.48,33.41,34.24,0,0,5.09,1.15,11.54,.92,4.39-.93,6.56-2.62,7.53-3.69Z"/>
            <path class="cls-3" d="M13.45,15.2c6.58-3.97,15.43-5.98,23.36-6.99,4.44-3.58,11.75-7.02,22.01-4.27-.53-.73-1.2-1.3-1.23-1.33C47.79-.86,32.41-2.76,16.25,9.47,16.25,9.47,.62,21.68,.12,39.77c.12-1.61,.32-3.06,.62-4.17C4.9,20.28,13.45,15.2,13.45,15.2Z"/>
            <path class="cls-3" d="M36.14,45.17s-2.2-1.82-4.42-4.97c-4.97,5.86-6.82,11.32-6.82,11.32-1.51,4.25-1.32,8.04,0,11.41,.21,.12,.42,.23,.64,.35,0,0,30.91,13.94,28.31,18.52,0,0-.19,.4-.71,.97-.97,1.07-3.14,2.77-7.53,3.69,1.41-.05,2.88-.17,4.38-.38,2.11-.35,4.75-.96,7.67-2.01,7.25-2.6,16.22-7.91,22.84-18.73,0,0-24.15-2.71-44.34-20.19Z"/>
            <path class="cls-6" d="M58.81,3.94c2.79,.75,5.81,1.95,9.04,3.75-.19-.13-.37-.26-.57-.39-.08-.05-.16-.1-.24-.15-.12-.07-.24-.14-.36-.22-1.77-1.07-4.91-2.83-9.1-4.32,.03,.02,.7,.59,1.23,1.33Z"/>
            <path class="cls-4" d="M24.89,62.93c-1.31-3.37-1.5-7.16,0-11.41,0,0,1.85-5.46,6.82-11.32-3.89-5.52-7.84-15.12-.15-26.25,0,0,1.73-2.91,5.24-5.74-7.92,1.01-16.77,3.02-23.36,6.99,0,0-8.55,5.08-12.7,20.4-.3,1.11-.5,2.56-.62,4.17-.01,.58-.01,1.17,0,1.76,0,0-.8,7.48,24.76,21.4Z"/>
            <path class="cls-9" d="M37.07,8.14c-.11,.02-.21,.03-.32,.04-3.51,2.83-5.24,5.74-5.24,5.74-7.69,11.13-3.74,20.73,.16,26.25,2.53-2.98,5.87-6.07,10.19-8.6-8.24-1.93-11.53-8.52-4.79-23.43Z"/>
          </g>
          <g>
            <g>
              <path class="cls-6" d="M100.4,49.1c-.87-.6-1.86-1.07-2.97-1.41-1.07-.33-2.17-.63-3.28-.9-.81-.2-1.6-.41-2.34-.63-.72-.21-1.35-.49-1.89-.83-.51-.32-.93-.73-1.23-1.22-.3-.48-.45-1.1-.45-1.85,0-.69,.12-1.33,.35-1.89,.23-.55,.58-1.02,1.05-1.41,.48-.39,1.09-.7,1.83-.92,.75-.22,1.66-.33,2.68-.33,1.39,.01,2.71,.17,3.93,.48,1.23,.31,2.43,.71,3.58,1.19l.58,.24v-4.12l-.25-.11c-1.11-.48-2.35-.87-3.68-1.16-1.34-.29-2.79-.44-4.33-.44-1.36,0-2.67,.17-3.87,.5-1.22,.34-2.32,.87-3.26,1.58-.95,.72-1.71,1.63-2.27,2.73-.56,1.09-.84,2.41-.84,3.92s.27,2.68,.81,3.63c.53,.95,1.25,1.73,2.13,2.33,.86,.59,1.85,1.05,2.94,1.38,1.06,.32,2.16,.61,3.27,.87,.82,.2,1.62,.41,2.37,.63,.72,.22,1.36,.5,1.91,.84,.52,.33,.95,.74,1.26,1.24,.3,.48,.46,1.12,.46,1.88,0,.96-.18,1.75-.54,2.38-.36,.62-.85,1.12-1.46,1.47-.63,.37-1.39,.64-2.24,.8-1.4,.26-2.88,.34-4.67,.12-.67-.08-1.35-.2-2.02-.34-.66-.15-1.31-.32-1.93-.53-.62-.21-1.18-.43-1.67-.68l-.6-.3v4.08l.2,.12c.35,.22,.82,.42,1.42,.63,.58,.2,1.24,.39,1.95,.55,.71,.16,1.47,.29,2.25,.38,.79,.09,1.57,.14,2.31,.14,1.63,0,3.15-.17,4.52-.51,1.39-.34,2.62-.88,3.64-1.59,1.04-.72,1.86-1.66,2.45-2.79,.59-1.13,.89-2.48,.89-4.01s-.28-2.77-.83-3.75c-.55-.97-1.27-1.77-2.15-2.38Z"/>
              <path class="cls-6" d="M115.72,60.33c-1.12,.16-2.14,.13-2.83-.12-.39-.14-.72-.34-.96-.58-.24-.24-.42-.54-.54-.87-.12-.35-.18-.74-.18-1.16v-11.36h6.04v-3.66h-6.04v-5.53h-4.13v5.53h-3.89v3.66h3.89v11.87c0,.9,.14,1.72,.41,2.46,.28,.75,.7,1.4,1.26,1.94,.56,.53,1.27,.94,2.1,1.22,.82,.28,1.79,.41,2.9,.41h0c.82-.01,1.55-.07,2.15-.18,.61-.11,1.07-.22,1.38-.34l.26-.11v-3.6l-.53,.15c-.39,.11-.83,.2-1.3,.27Z"/>
              <path class="cls-6" d="M134.15,46.24c-.6-1.27-1.6-2.29-2.97-3.06-1.35-.75-3.11-1.14-5.21-1.14-.57,0-1.16,.03-1.74,.09-.58,.06-1.14,.14-1.66,.25-.52,.11-1.03,.24-1.5,.39-.48,.15-.9,.32-1.26,.5l-.23,.12v3.63l.57-.22c.87-.33,1.75-.59,2.63-.78,.87-.18,1.81-.28,2.79-.28,1.3,0,2.33,.21,3.07,.62,.73,.41,1.27,.92,1.6,1.52,.15,.28,.26,.62,.32,1,.07,.4,.1,.87,.1,1.4v.85c-.6-.19-1.26-.36-1.97-.49-.91-.17-1.92-.27-2.99-.28-1.15,0-2.21,.16-3.16,.47-.96,.31-1.8,.77-2.49,1.36-.7,.59-1.24,1.32-1.63,2.16-.38,.84-.58,1.81-.58,2.87s.17,2.04,.52,2.9c.35,.86,.84,1.6,1.47,2.2,.63,.6,1.39,1.06,2.25,1.37,.86,.31,1.81,.46,2.83,.46,.75,0,1.47-.08,2.14-.25,.66-.16,1.29-.38,1.85-.66,.56-.28,1.07-.59,1.5-.94,.2-.16,.39-.33,.56-.49l.29,1.81h3.54v-13.9c0-.67-.05-1.3-.14-1.86-.1-.58-.26-1.12-.49-1.61Zm-3.5,8.41v3.54c-.15,.14-.34,.31-.58,.52-.31,.27-.7,.54-1.15,.81-.44,.27-.96,.5-1.54,.7-.98,.33-2.22,.4-3.22,.08-.41-.13-.78-.33-1.08-.6-.3-.26-.53-.6-.71-1.01-.17-.41-.26-.91-.26-1.47,0-1.1,.33-1.89,1.02-2.41,.71-.54,1.73-.81,3.03-.81,.97,.01,1.87,.1,2.68,.25,.68,.13,1.29,.26,1.82,.4Z"/>
              <path class="cls-6" d="M149.69,42.09c-.12-.01-.26-.03-.42-.04-1-.04-1.92,.05-2.79,.29-.74,.2-1.43,.48-2.06,.84-.62,.36-1.19,.78-1.69,1.25-.27,.26-.52,.53-.74,.81l-.53-2.66h-3.31v21.03h4.13v-14.37c.32-.5,.71-.93,1.17-1.3,.5-.4,1.07-.74,1.69-1.02,.63-.28,1.31-.49,2.02-.62,.72-.14,1.47-.21,2.22-.21h.67v-3.96l-.37-.04Z"/>
            </g>
            <path class="cls-5" d="M170.1,52.75c0,6.96-5.64,12.6-12.6,12.6s-12.6-5.64-12.6-12.6,5.64-12.6,12.6-12.6,12.6,5.64,12.6,12.6Z"/>
            <g>
              <polygon class="cls-6" points="201.92 42.57 206.58 42.57 223.66 63.54 219 63.54 201.92 42.57"/>
              <path class="cls-6" d="M195.47,64.08c-7.48,0-11.49-5.42-11.49-11.04,0-5.99,4.29-11,10.88-11s11.04,4.98,11.04,12.42h-18.04c.57,3.6,3.48,6.23,7.57,6.23,0,0,5.97,.69,10.61-3.94l11.54-14.16h4.66l-13.4,16.45c-6.07,6.07-13.37,5.05-13.37,5.05Zm6.31-12.62c-.36-3.48-3.2-6.03-6.96-6.03-4.45,0-6.6,3.15-6.96,6.03h13.92Z"/>
              <path class="cls-6" d="M162.9,47.53c-1.46-1.42-3.08-2.1-4.9-2.1-3.6,0-6.96,2.63-6.96,7.81,0,4.29,3.12,7.44,7.32,7.44,1.74,0,3.44-.97,4.69-2.14l2.14,2.67c-1.9,1.94-4.57,2.87-7.28,2.87-6.47,0-10.76-5.14-10.76-10.96s4.73-11.08,10.8-11.08c3.2,0,5.91,1.33,7.4,2.63l-2.47,2.87Z"/>
              <path class="cls-6" d="M175.84,42.03c6.64,0,11.41,5.1,11.41,11.04s-4.53,11-11.41,11-11.41-4.98-11.41-11,4.77-11.04,11.41-11.04Zm-7.52,11.04c0,4.04,3.48,7.61,7.52,7.61s7.53-3.56,7.53-7.61c0-4.37-3.48-7.65-7.53-7.65s-7.52,3.28-7.52,7.65Z"/>
            </g>
            <path class="cls-6" d="M229.55,47.79c-2.74,0-4.95-2.21-4.95-4.95s2.21-4.96,4.95-4.96,4.95,2.23,4.95,4.96-2.22,4.95-4.95,4.95Zm0-9.23c-2.33,0-4.25,1.92-4.25,4.29s1.92,4.27,4.25,4.27,4.25-1.92,4.25-4.27-1.92-4.29-4.25-4.29Zm-1.84,1.1c.41-.08,1.03-.14,1.58-.14,.88,0,1.43,.16,1.83,.53,.32,.29,.49,.71,.49,1.21,0,.81-.5,1.36-1.13,1.63,.46,.19,.73,.66,.87,1.29,.21,.88,.35,1.5,.5,1.76h-.85c-.1-.19-.25-.73-.43-1.53-.16-.87-.5-1.21-1.26-1.23h-.78v2.77h-.82v-6.29Zm.82,2.9h.83c.86,0,1.43-.49,1.43-1.21,0-.83-.61-1.17-1.47-1.17-.38,0-.63,.01-.79,.06v2.32Z"/>
          </g>
        </g>
      </g>
    </g>
  </g>
</svg>