<?xml version="1.0" encoding="UTF-8"?>
<svg id="_레이어_2" data-name="레이어 2" xmlns="http://www.w3.org/2000/svg" viewBox="0 0 129.65 61.71">
  <g id="Layer_1" data-name="Layer 1">
    <g>
      <path d="M81.85,13.17c-6.01-.34-11.57,.93-17,2.44,27,6,40.15,3.86,59.64,10.11-19.58-8.02-27.15-11.68-42.64-12.55Zm-45.24,1.13c2.8-1.54,6.29,1.34,8.22-2.92,6.47-.38,12.89,2.8,18.86,3.05,20.24-5.46,28.66-2.64,49.02,5.03-19.9-9.69-28.94-13-49.44-7-11.22-1.53-19.01-6.12-29.27,.82-.25,.16-.39,.35-.47,.55l3.09,.49Z" style="fill: #231815; fill-rule: evenodd;"/>
      <polygon points="59.52 59.48 59.52 19.33 50.65 18.05 50.65 33.27 41.93 32.51 41.93 40.87 50.65 41.37 50.65 59.57 59.52 59.48" style="fill: #231815;"/>
      <path d="M68.79,52.9V20.67l-8.27-1.2V59.37c4.6-.07,7.2-2.05,8.27-6.48Z" style="fill: #231815;"/>
      <path d="M129.65,54.67V29.45l-4.65-.68v29.53c2.59-.04,4.05-1.16,4.65-3.64Z" style="fill: #231815;"/>
      <path d="M50.16,54.59l-6.16,6.3-1.37-.99c-.53-.39-1.05-.82-1.57-1.3-.52-.48-1.03-1-1.54-1.57-.51-.57-1.01-1.19-1.5-1.84-.49-.66-.98-1.36-1.45-2.11-.22-.33-.43-.68-.63-1.01-.2-.34-.4-.68-.6-1.03-.19-.35-.37-.7-.55-1.05-.18-.35-.36-.7-.52-1.05-.48,1.08-1.03,2.13-1.67,3.14-.64,1.03-1.35,2.02-2.13,2.97-.8,.97-1.67,1.89-2.62,2.8-.95,.9-1.99,1.78-3.11,2.63l-1.64,1.23-7.42-6.78,1.6-1.31c1.08-.88,2.07-1.79,2.98-2.72,.91-.92,1.72-1.86,2.46-2.81,.73-.95,1.38-1.93,1.95-2.92,.56-.99,1.05-2,1.45-3.02,.4-1.02,.76-2.13,1.05-3.33,.3-1.19,.55-2.48,.75-3.85,.2-1.37,.35-2.83,.44-4.38,.1-1.54,.15-3.18,.15-4.9v-1.16l-7.12-.79c3.27-3.06,8.19-4.18,15.13-3.8-6.72-.37-11.57-1.96-14.9-5.17l25.98,3.68v8.19l-8.36-.92v.92c0,2.98,.21,5.8,.63,8.44,.42,2.63,1.04,5.08,1.87,7.34,.82,2.25,1.84,4.3,3.05,6.16,1.2,1.84,2.59,3.48,4.14,4.91l1.2,1.11Z" style="fill: #231815;"/>
      <path d="M107.59,38.62l-5.36-.46v-12.65l-6.26-.9v24.21c0,.14,0,.35-.06,.6-.06,.25-.19,.54-.43,.84-.25,.3-.62,.62-1.18,.92-.57,.3-1.32,.58-2.34,.83-.18,.05-.38,.09-.61,.13-.23,.04-.48,.07-.76,.11-.28,.03-.58,.06-.9,.09-.33,.03-.67,.05-1.05,.07-.33,.02-.67,.03-1.03,.04-.36,.01-.75,.02-1.15,.02-.4,0-.82,0-1.26,0-.44,0-.9,0-1.38-.02-.54-.01-1.06-.03-1.54-.04-.48-.02-.94-.05-1.36-.08-.42-.03-.81-.07-1.16-.11-.36-.04-.68-.09-.96-.15-.2-.03-.36-.07-.47-.11-.11-.04-.19-.09-.24-.15-.05-.05-.08-.11-.09-.18-.01-.07-.01-.13-.01-.21v-7.61l13.73,.72,.67-15.79c.02-.62-.05-1.2-.18-1.71-.14-.51-.35-.96-.63-1.35-.28-.38-.63-.7-1.04-.94-.41-.24-.89-.4-1.43-.47l-18.72-2.66v7.49l14.78,1.65h.08s.01,.05,.02,.07c0,.03,.01,.06,.02,.09,0,.04,0,.08,.01,.13,0,.05,0,.1,0,.16v5.94l-15.14-1.26v16.73c.05,.45,.13,.87,.21,1.28,.4,1.33,.93,2.48,1.6,3.48,1.03,1.2,2.52,1.96,4.54,2.38,.32,.02,.65,.05,1,.06,.45,.02,.93,.03,1.43,.04,.5,0,1.03,0,1.59,0,.53,0,1.04-.02,1.54-.03,.49-.01,.97-.03,1.43-.05,.46-.02,.91-.04,1.34-.07,.43-.03,.85-.06,1.24-.09,.67-.05,1.3-.12,1.89-.18,.59-.07,1.14-.15,1.66-.23,.51-.09,.99-.18,1.44-.28,.44-.1,.86-.21,1.23-.33,.38-.12,.75-.25,1.09-.38,.34-.13,.67-.25,.98-.38,.3-.13,.59-.26,.87-.4,.27-.13,.52-.27,.76-.41v2.04l2.28-.03c2.53-.46,3.74-2.29,3.98-5.88v-8.47l5.36,.3v-6.35Z" style="fill: #231815;"/>
      <path d="M104.88,57.4l-1.16-1.52c.32,.58,.7,1.09,1.16,1.52Z" style="fill: #231815;"/>
      <path d="M119.3,27.94v11.39l-1.99-.17c.08-.55,.14-1.11,.2-1.68,.05-.57,.1-1.15,.14-1.74,.04-.59,.07-1.19,.08-1.8,.02-.61,.03-1.22,.03-1.85,0-.32-.01-.61-.03-.89-.02-.27-.05-.52-.09-.75-.04-.23-.09-.44-.15-.63-.06-.19-.14-.36-.22-.52-.1-.19-.22-.35-.36-.5-.14-.15-.3-.28-.48-.39-.18-.11-.39-.2-.61-.28-.23-.07-.47-.13-.75-.17l-11.12-1.58v6.47l8.01,.89h.07s0,.04,0,.06c0,.02,0,.04,.01,.07,0,.03,0,.06,0,.1,0,.04,0,.08,0,.13,0,2-.16,3.89-.49,5.68-.33,1.79-.83,3.49-1.5,5.1-.67,1.62-1.53,3.16-2.57,4.63-1.05,1.48-2.29,2.89-3.73,4.24l-.68,.63c.17,.55,.38,1.05,.62,1.5l1.16,1.52c.67,.63,1.48,1.12,2.48,1.48l.05-.04c1.06-.99,2.03-2.02,2.92-3.1,.88-1.06,1.68-2.17,2.4-3.31,.71-1.14,1.35-2.32,1.9-3.53,.55-1.21,1.03-2.46,1.42-3.76l3.25,.18v12.98l4.9-.05V28.65l-4.9-.71Z" style="fill: #231815;"/>
      <polygon points="41.93 40.87 41.88 32.23 91.29 37.65 91.55 44.03 41.93 40.87" style="fill: #231815;"/>
      <g>
        <path d="M46.9,38.29c0,.49-.14,.86-.43,1.11-.29,.26-.68,.36-1.16,.32-.34-.03-.64-.11-.89-.24-.25-.13-.48-.34-.7-.62l.44-.5c.16,.2,.33,.35,.52,.45,.19,.1,.4,.15,.63,.18,.29,.03,.52-.02,.68-.15,.16-.13,.24-.33,.23-.59,0-.25-.06-.44-.18-.58-.05-.07-.12-.12-.19-.16-.07-.04-.17-.08-.3-.11l-.53-.14c-.36-.1-.65-.27-.85-.52-.22-.27-.33-.63-.34-1.07,0-.48,.12-.85,.39-1.11,.26-.26,.62-.37,1.08-.32,.56,.06,1.02,.32,1.39,.77l-.43,.47c-.13-.17-.28-.29-.44-.37-.16-.08-.34-.13-.54-.15-.25-.03-.45,.03-.6,.17-.14,.15-.21,.34-.21,.58,0,.21,.06,.39,.18,.52,.12,.14,.28,.24,.5,.3l.51,.14c.2,.06,.37,.12,.49,.2,.13,.08,.24,.17,.34,.29,.25,.28,.37,.66,.38,1.14Z" style="fill: #fff;"/>
        <path d="M50.67,40.16l-2.85-.25-.06-5.36,2.85,.31v.72s-2.16-.23-2.16-.23l.02,1.56,1.85,.19v.72s-1.84-.18-1.84-.18l.02,1.61,2.17,.2v.72Z" style="fill: #fff;"/>
        <path d="M54.43,40.48l-2.82-.24-.07-5.28,.68,.07,.06,4.55,2.15,.19v.71Z" style="fill: #fff;"/>
        <path d="M57.99,36.34l-2.17-.22,.02,1.58,1.85,.18v.7s-1.84-.17-1.84-.17l.03,2.2-.68-.06-.07-5.21,2.85,.3v.7Z" style="fill: #fff;"/>
        <path d="M63.37,39.72c-.07,.49-.24,.86-.52,1.1-.28,.25-.63,.35-1.05,.32-.46-.04-.86-.25-1.18-.64-.2-.25-.33-.54-.39-.87-.04-.21-.06-.61-.07-1.22,0-.6,0-1,.03-1.2,.05-.33,.17-.6,.37-.81,.31-.33,.7-.47,1.16-.42,.42,.04,.77,.21,1.05,.51,.29,.3,.47,.7,.56,1.2l-.69-.07c-.06-.28-.16-.49-.31-.65-.16-.18-.36-.28-.6-.3-.27-.03-.49,.05-.65,.24-.11,.12-.18,.29-.21,.5-.03,.21-.05,.56-.04,1.06,0,.52,.03,.88,.06,1.08,.04,.2,.11,.38,.23,.53,.17,.22,.39,.34,.66,.36,.24,.02,.44-.04,.59-.18,.15-.14,.25-.35,.3-.61l.68,.06Z" style="fill: #fff;"/>
        <path d="M67.57,41.56l-.72-.06-.31-1.02-1.76-.15-.3,.98-.72-.06,1.57-4.87,.54,.05,1.7,5.12Zm-1.24-1.73l-.7-2.28-.66,2.16,1.37,.12Z" style="fill: #fff;"/>
        <path d="M71.46,41.86l-.79-.06-.96-2.14-.85-.07,.03,2.08-.68-.05-.06-4.95,1.73,.17c.42,.04,.75,.21,1.01,.49,.26,.29,.39,.64,.39,1.07,0,.33-.07,.61-.24,.82-.16,.21-.37,.35-.64,.4l1.06,2.25Zm-.86-3.52c0-.24-.07-.43-.21-.58-.14-.15-.32-.24-.55-.26l-1-.09,.02,1.55,1,.09c.23,.02,.41-.03,.55-.16,.14-.12,.21-.31,.2-.54Z" style="fill: #fff;"/>
        <path d="M78.55,37.65l-1.1,4.65-.59-.04-.96-3.42-.86,3.29-.59-.04-1.23-4.93,.71,.07,.82,3.52,.85-3.36,.55,.05,.94,3.5,.73-3.34,.71,.06Z" style="fill: #fff;"/>
        <path d="M82.55,42.66l-.72-.05-.31-.96-1.76-.13-.3,.92-.72-.05,1.57-4.58,.54,.05,1.7,4.8Zm-1.24-1.62l-.7-2.14-.66,2.03,1.37,.1Z" style="fill: #fff;"/>
        <path d="M85.95,41.59c0,.42-.14,.73-.43,.95-.29,.22-.68,.32-1.16,.28-.34-.02-.64-.09-.89-.2-.25-.11-.48-.28-.7-.52l.44-.43c.16,.17,.33,.3,.52,.38,.19,.08,.4,.13,.63,.15,.29,.02,.52-.03,.68-.14,.16-.11,.24-.28,.23-.5,0-.21-.06-.38-.18-.49-.06-.06-.12-.1-.19-.14-.07-.04-.17-.07-.3-.09l-.53-.12c-.36-.08-.65-.23-.85-.44-.22-.23-.33-.53-.34-.91,0-.41,.12-.73,.39-.95,.26-.23,.62-.32,1.08-.28,.56,.05,1.02,.26,1.39,.64l-.43,.4c-.13-.14-.28-.24-.44-.31-.16-.07-.34-.11-.54-.13-.25-.02-.45,.03-.59,.15-.14,.12-.21,.29-.21,.5,0,.18,.06,.33,.18,.45,.12,.12,.28,.2,.5,.25l.51,.12c.2,.05,.37,.1,.49,.16,.13,.06,.24,.15,.34,.24,.25,.24,.37,.56,.38,.97Z" style="fill: #fff;"/>
        <path d="M90.04,43.16l-.68-.04-.03-1.97-1.81-.13,.03,1.99-.68-.04-.07-4.57,.68,.06,.03,1.95,1.81,.14-.03-1.93,.68,.06,.07,4.5Z" style="fill: #fff;"/>
      </g>
      <path d="M16.05,35.61c-.28-12.93-4.68-18.35-16.05-19.79,11.37,1.44,15.56-2.9,15.27-15.83,.28,12.93,4.68,18.34,16.06,19.78-11.37-1.43-15.56,2.9-15.27,15.84Z" style="fill: #e60012; fill-rule: evenodd;"/>
    </g>
  </g>
</svg>