<?xml version="1.0" encoding="UTF-8"?>
<svg id="_레이어_2" data-name="레이어 2" xmlns="http://www.w3.org/2000/svg" viewBox="0 0 95.26 62.41">
  <g id="Layer_1" data-name="Layer 1">
    <g>
      <path d="M58.73,11.41c-5.12-.72-9.86-.04-14.48,.86,23,7.05,34.2,6.16,50.8,12.88-16.67-8.23-23.13-11.89-36.32-13.74Zm-38.53-2.27c2.39-1.11,5.36,1.59,7-1.91,5.51,.14,10.98,3.31,16.06,3.94,17.24-3.2,24.41-.2,41.75,7.79-16.95-9.67-24.66-13.14-42.11-9.5-9.56-2.11-16.19-6.57-24.93-1.4-.21,.13-.34,.27-.4,.43l2.63,.64Z" style="fill: #231815; fill-rule: evenodd;"/>
      <path d="M60.38,59.84l-.02,2.3-49.67,.26L39.71,25.08l-22.32-3.61c2.76-3.5,7.39-4.51,14.39-3.53-6.92-.97-11.57-3.24-14.42-7.43l3.15,.65,41.85,8.64-22.9,32.26,14.35,.58c4.1,.8,6.07,2.96,6.57,7.21Z" style="fill: #231815;"/>
      <path d="M72.19,53.81c-6.5-.45-8.92,1.83-8.83,8.32h3.15s9.16-.06,9.16-.06l-.02-18.16,.19,.02,8.96,18.09,10.46-.05-7.89-16.81c.5-.17,.97-.36,1.4-.58,.43-.22,.83-.47,1.2-.74,.37-.27,.71-.57,1.01-.9,.31-.33,.58-.68,.83-1.06,.24-.38,.46-.77,.64-1.16,.18-.39,.33-.79,.45-1.19,.12-.4,.21-.81,.27-1.23,.06-.42,.08-.84,.08-1.27,0-.84-.09-1.65-.26-2.43-.17-.78-.41-1.53-.75-2.25-.33-.72-.74-1.42-1.24-2.09-.5-.67-1.09-1.32-1.76-1.94-.68-.63-1.42-1.21-2.24-1.74-.82-.54-1.71-1.03-2.68-1.48-.97-.45-2.02-.86-3.15-1.22-1.14-.37-2.37-.68-3.68-.95l-5.18-1.07-8.89-1.84-.1,26.94c.74,4.53,3.36,6.48,8.87,6.86Zm5.33-23.31c.57,.15,1.09,.32,1.57,.5,.47,.18,.89,.37,1.26,.58,.37,.21,.7,.43,.97,.66,.28,.23,.52,.49,.73,.78,.21,.28,.38,.59,.52,.93,.14,.33,.24,.69,.31,1.08,.07,.38,.11,.8,.11,1.24,0,.65-.14,1.19-.44,1.65-.29,.45-.74,.81-1.33,1.07-.6,.26-1.36,.43-2.28,.5-.93,.07-2.02,.04-3.29-.08v-9.33c.67,.13,1.3,.27,1.87,.42Z" style="fill: #231815;"/>
      <path d="M13.35,30.67c-.12-11.14-3.78-15.84-13.35-17.18,9.57,1.34,13.13-2.35,13.01-13.49,.12,11.13,3.78,15.84,13.35,17.17-9.57-1.34-13.14,2.36-13.02,13.49Z" style="fill: #e60012; fill-rule: evenodd;"/>
      <polygon points="33.6 42.46 33.6 35.33 75.86 40.05 75.86 45.14 33.6 42.46" style="fill: #231815;"/>
      <g>
        <path d="M37.9,40.23c0,.42-.12,.73-.36,.95-.25,.22-.58,.31-.99,.27-.29-.03-.54-.1-.76-.21-.21-.11-.41-.29-.59-.53l.38-.43c.13,.17,.28,.3,.44,.38,.16,.08,.34,.13,.54,.15,.25,.02,.44-.02,.58-.13,.14-.11,.2-.28,.2-.5,0-.21-.05-.37-.16-.49-.05-.06-.1-.1-.16-.14-.06-.04-.15-.07-.26-.1l-.45-.12c-.31-.08-.55-.23-.72-.44-.19-.23-.28-.54-.29-.91,0-.41,.1-.72,.33-.95,.22-.22,.53-.31,.92-.27,.48,.05,.87,.27,1.19,.65l-.36,.4c-.11-.14-.24-.25-.37-.31-.14-.07-.29-.11-.46-.13-.22-.02-.39,.03-.51,.15-.12,.12-.18,.29-.18,.5,0,.18,.05,.33,.15,.45,.1,.12,.24,.2,.43,.25l.43,.12c.17,.05,.31,.1,.42,.17,.11,.06,.21,.15,.29,.25,.21,.24,.32,.56,.32,.97Z" style="fill: #fff;"/>
        <path d="M41.11,41.82l-2.43-.22-.06-4.56,2.43,.26v.62s-1.84-.2-1.84-.2l.02,1.33,1.58,.16v.61s-1.57-.15-1.57-.15l.02,1.37,1.85,.17v.61Z" style="fill: #fff;"/>
        <path d="M44.31,42.1l-2.41-.21-.06-4.5,.58,.06,.05,3.88,1.83,.16v.61Z" style="fill: #fff;"/>
        <path d="M47.34,38.57l-1.85-.19,.02,1.35,1.58,.15v.6s-1.57-.15-1.57-.15l.02,1.87-.58-.05-.06-4.44,2.43,.25v.6Z" style="fill: #fff;"/>
        <path d="M51.93,41.45c-.06,.42-.21,.73-.45,.94-.24,.21-.54,.3-.89,.27-.39-.03-.73-.21-1-.54-.17-.21-.28-.46-.33-.74-.03-.18-.05-.52-.06-1.04,0-.51,0-.85,.03-1.02,.04-.28,.15-.51,.32-.69,.27-.28,.6-.4,.99-.36,.36,.04,.65,.18,.9,.44,.24,.25,.4,.59,.47,1.02l-.59-.06c-.05-.23-.14-.42-.26-.56-.14-.15-.31-.24-.51-.26-.23-.02-.42,.05-.56,.21-.09,.1-.15,.25-.18,.43-.03,.18-.04,.48-.03,.9,0,.44,.02,.75,.05,.92,.03,.17,.09,.32,.19,.45,.14,.19,.33,.29,.56,.31,.21,.02,.37-.03,.5-.16,.13-.12,.22-.29,.26-.52l.58,.05Z" style="fill: #fff;"/>
        <path d="M55.51,43.01l-.61-.05-.27-.87-1.5-.12-.25,.84-.61-.05,1.34-4.15,.46,.05,1.45,4.36Zm-1.06-1.48l-.6-1.94-.57,1.84,1.16,.1Z" style="fill: #fff;"/>
        <path d="M58.81,43.27l-.67-.05-.82-1.83-.72-.06,.02,1.77-.58-.04-.06-4.21,1.47,.14c.36,.03,.64,.17,.86,.42,.22,.24,.33,.55,.33,.91,0,.28-.06,.52-.2,.7-.14,.18-.32,.3-.54,.34l.9,1.91Zm-.73-3c0-.2-.06-.37-.18-.5-.12-.13-.28-.2-.47-.22l-.85-.08,.02,1.32,.85,.08c.19,.02,.35-.03,.46-.13,.12-.11,.17-.26,.17-.46Z" style="fill: #fff;"/>
        <path d="M64.86,39.68l-.94,3.96-.5-.04-.81-2.91-.73,2.8-.5-.04-1.05-4.2,.61,.06,.7,3,.72-2.87,.46,.04,.8,2.98,.62-2.85,.61,.06Z" style="fill: #fff;"/>
        <path d="M68.26,43.95l-.61-.04-.27-.82-1.5-.11-.25,.79-.61-.04,1.34-3.9,.46,.04,1.45,4.09Zm-1.06-1.38l-.6-1.82-.57,1.73,1.16,.09Z" style="fill: #fff;"/>
        <path d="M71.16,43.04c0,.35-.12,.63-.36,.81-.25,.19-.58,.27-.99,.24-.29-.02-.54-.08-.76-.17-.21-.09-.41-.24-.59-.44l.38-.37c.13,.15,.28,.25,.44,.32,.16,.07,.34,.11,.54,.12,.25,.02,.44-.02,.58-.12,.14-.09,.2-.24,.2-.43,0-.18-.05-.32-.16-.42-.05-.05-.1-.09-.16-.12-.06-.03-.15-.06-.26-.08l-.45-.1c-.31-.07-.55-.19-.72-.37-.19-.2-.28-.46-.29-.78,0-.35,.11-.62,.33-.81,.22-.19,.53-.27,.92-.24,.48,.04,.87,.23,1.19,.55l-.36,.34c-.11-.12-.24-.21-.37-.27-.14-.06-.29-.09-.46-.11-.22-.02-.39,.02-.51,.13-.12,.11-.18,.25-.18,.42,0,.16,.05,.28,.15,.38,.1,.1,.24,.17,.43,.21l.43,.1c.17,.04,.31,.09,.42,.14,.11,.05,.21,.12,.29,.21,.21,.2,.32,.48,.32,.82Z" style="fill: #fff;"/>
        <path d="M74.64,44.38l-.58-.04-.02-1.68-1.54-.12,.02,1.69-.58-.04-.06-3.89,.58,.05,.02,1.66,1.54,.12-.02-1.64,.58,.05,.06,3.84Z" style="fill: #fff;"/>
      </g>
    </g>
  </g>
</svg>