<?xml version="1.0" encoding="UTF-8"?>
<svg id="Layer_1" data-name="Layer 1" xmlns="http://www.w3.org/2000/svg" viewBox="0 0 129.65 185.11">
  <g>
    <path d="M81.85,136.56c-6.01-.34-11.57,.93-17,2.44,27,6,40.15,3.86,59.64,10.11-19.58-8.02-27.15-11.68-42.64-12.55Zm-45.24,1.13c2.8-1.54,6.29,1.34,8.22-2.92,6.47-.38,12.89,2.8,18.86,3.05,20.24-5.46,28.66-2.64,49.02,5.03-19.9-9.69-28.94-13-49.44-7-11.22-1.53-19.01-6.12-29.27,.82-.25,.16-.39,.35-.47,.55l3.09,.49Z" style="fill: #231815; fill-rule: evenodd;"/>
    <polygon points="59.52 182.88 59.52 142.73 50.65 141.44 50.65 156.66 41.93 155.91 41.93 164.27 50.65 164.76 50.65 182.96 59.52 182.88" style="fill: #231815;"/>
    <path d="M68.79,176.29v-32.22l-8.27-1.2v39.9c4.6-.07,7.2-2.05,8.27-6.48Z" style="fill: #231815;"/>
    <path d="M129.65,178.06v-25.21l-4.65-.68v29.53c2.59-.04,4.05-1.16,4.65-3.64Z" style="fill: #231815;"/>
    <path d="M50.16,177.98l-6.16,6.3-1.37-.99c-.53-.39-1.05-.82-1.57-1.3-.52-.48-1.03-1-1.54-1.57-.51-.57-1.01-1.19-1.5-1.84-.49-.66-.98-1.36-1.45-2.11-.22-.33-.43-.68-.63-1.01-.2-.34-.4-.68-.6-1.03-.19-.35-.37-.7-.55-1.05-.18-.35-.36-.7-.52-1.05-.48,1.08-1.03,2.13-1.67,3.14-.64,1.03-1.35,2.02-2.13,2.97-.8,.97-1.67,1.89-2.62,2.8-.95,.9-1.99,1.78-3.11,2.63l-1.64,1.23-7.42-6.78,1.6-1.31c1.08-.88,2.07-1.79,2.98-2.72,.91-.92,1.72-1.86,2.46-2.81,.73-.95,1.38-1.93,1.95-2.92,.56-.99,1.05-2,1.45-3.02,.4-1.02,.76-2.13,1.05-3.33,.3-1.19,.55-2.48,.75-3.85,.2-1.37,.35-2.83,.44-4.38,.1-1.54,.15-3.18,.15-4.9v-1.16l-7.12-.79c3.27-3.06,8.19-4.18,15.13-3.8-6.72-.37-11.57-1.96-14.9-5.17l25.98,3.68v8.19l-8.36-.92v.92c0,2.98,.21,5.8,.63,8.44,.42,2.63,1.04,5.08,1.87,7.34,.82,2.25,1.84,4.3,3.05,6.16,1.2,1.84,2.59,3.48,4.14,4.91l1.2,1.11Z" style="fill: #231815;"/>
    <path d="M107.59,162.02l-5.36-.46v-12.65l-6.26-.9v24.21c0,.14,0,.35-.06,.6-.06,.25-.19,.54-.43,.84-.25,.3-.62,.62-1.18,.92-.57,.3-1.32,.58-2.34,.83-.18,.05-.38,.09-.61,.13-.23,.04-.48,.07-.76,.11-.28,.03-.58,.06-.9,.09-.33,.03-.67,.05-1.05,.07-.33,.02-.67,.03-1.03,.04-.36,.01-.75,.02-1.15,.02-.4,0-.82,0-1.26,0-.44,0-.9,0-1.38-.02-.54-.01-1.06-.03-1.54-.04-.48-.02-.94-.05-1.36-.08-.42-.03-.81-.07-1.16-.11-.36-.04-.68-.09-.96-.15-.2-.03-.36-.07-.47-.11-.11-.04-.19-.09-.24-.15-.05-.05-.08-.11-.09-.18-.01-.07-.01-.13-.01-.21v-7.61l13.73,.72,.67-15.79c.02-.62-.05-1.2-.18-1.71-.14-.51-.35-.96-.63-1.35-.28-.38-.63-.7-1.04-.94-.41-.24-.89-.4-1.43-.47l-18.72-2.66v7.49l14.78,1.65h.08s.01,.05,.02,.07c0,.03,.01,.06,.02,.09,0,.04,0,.08,.01,.13,0,.05,0,.1,0,.16v5.94l-15.14-1.26v16.73c.05,.45,.13,.87,.21,1.28,.4,1.33,.93,2.48,1.6,3.48,1.03,1.2,2.52,1.96,4.54,2.38,.32,.02,.65,.05,1,.06,.45,.02,.93,.03,1.43,.04,.5,0,1.03,0,1.59,0,.53,0,1.04-.02,1.54-.03,.49-.01,.97-.03,1.43-.05,.46-.02,.91-.04,1.34-.07,.43-.03,.85-.06,1.24-.09,.67-.05,1.3-.12,1.89-.18,.59-.07,1.14-.15,1.66-.23,.51-.09,.99-.18,1.44-.28,.44-.1,.86-.21,1.23-.33,.38-.12,.75-.25,1.09-.38,.34-.13,.67-.25,.98-.38,.3-.13,.59-.26,.87-.4,.27-.13,.52-.27,.76-.41v2.04l2.28-.03c2.53-.46,3.74-2.29,3.98-5.88v-8.47l5.36,.3v-6.35Z" style="fill: #231815;"/>
    <path d="M104.88,180.8l-1.16-1.52c.32,.58,.7,1.09,1.16,1.52Z" style="fill: #231815;"/>
    <path d="M119.3,151.33v11.39l-1.99-.17c.08-.55,.14-1.11,.2-1.68,.05-.57,.1-1.15,.14-1.74,.04-.59,.07-1.19,.08-1.8,.02-.61,.03-1.22,.03-1.85,0-.32-.01-.61-.03-.89-.02-.27-.05-.52-.09-.75-.04-.23-.09-.44-.15-.63-.06-.19-.14-.36-.22-.52-.1-.19-.22-.35-.36-.5-.14-.15-.3-.28-.48-.39-.18-.11-.39-.2-.61-.28-.23-.07-.47-.13-.75-.17l-11.12-1.58v6.47l8.01,.89h.07s0,.04,0,.06c0,.02,0,.04,.01,.07,0,.03,0,.06,0,.1,0,.04,0,.08,0,.13,0,2-.16,3.89-.49,5.68-.33,1.79-.83,3.49-1.5,5.1-.67,1.62-1.53,3.16-2.57,4.63-1.05,1.48-2.29,2.89-3.73,4.24l-.68,.63c.17,.55,.38,1.05,.62,1.5l1.16,1.52c.67,.63,1.48,1.12,2.48,1.48l.05-.04c1.06-.99,2.03-2.02,2.92-3.1,.88-1.06,1.68-2.17,2.4-3.31,.71-1.14,1.35-2.32,1.9-3.53,.55-1.21,1.03-2.46,1.42-3.76l3.25,.18v12.98l4.9-.05v-29.59l-4.9-.71Z" style="fill: #231815;"/>
    <polygon points="41.93 164.27 41.88 155.63 91.29 161.04 91.55 167.42 41.93 164.27" style="fill: #231815;"/>
    <g>
      <path d="M46.9,161.69c0,.49-.14,.86-.43,1.11-.29,.26-.68,.36-1.16,.32-.34-.03-.64-.11-.89-.24-.25-.13-.48-.34-.7-.62l.44-.5c.16,.2,.33,.35,.52,.45,.19,.1,.4,.15,.63,.18,.29,.03,.52-.02,.68-.15,.16-.13,.24-.33,.23-.59,0-.25-.06-.44-.18-.58-.05-.07-.12-.12-.19-.16-.07-.04-.17-.08-.3-.11l-.53-.14c-.36-.1-.65-.27-.85-.52-.22-.27-.33-.63-.34-1.07,0-.48,.12-.85,.39-1.11,.26-.26,.62-.37,1.08-.32,.56,.06,1.02,.32,1.39,.77l-.43,.47c-.13-.17-.28-.29-.44-.37-.16-.08-.34-.13-.54-.15-.25-.03-.45,.03-.6,.17-.14,.15-.21,.34-.21,.58,0,.21,.06,.39,.18,.52,.12,.14,.28,.24,.5,.3l.51,.14c.2,.06,.37,.12,.49,.2,.13,.08,.24,.17,.34,.29,.25,.28,.37,.66,.38,1.14Z" style="fill: #fff;"/>
      <path d="M50.67,163.55l-2.85-.25-.06-5.36,2.85,.31v.72s-2.16-.23-2.16-.23l.02,1.56,1.85,.19v.72s-1.84-.18-1.84-.18l.02,1.61,2.17,.2v.72Z" style="fill: #fff;"/>
      <path d="M54.43,163.88l-2.82-.24-.07-5.28,.68,.07,.06,4.55,2.15,.19v.71Z" style="fill: #fff;"/>
      <path d="M57.99,159.74l-2.17-.22,.02,1.58,1.85,.18v.7s-1.84-.17-1.84-.17l.03,2.2-.68-.06-.07-5.21,2.85,.3v.7Z" style="fill: #fff;"/>
      <path d="M63.37,163.12c-.07,.49-.24,.86-.52,1.1-.28,.25-.63,.35-1.05,.32-.46-.04-.86-.25-1.18-.64-.2-.25-.33-.54-.39-.87-.04-.21-.06-.61-.07-1.22,0-.6,0-1,.03-1.2,.05-.33,.17-.6,.37-.81,.31-.33,.7-.47,1.16-.42,.42,.04,.77,.21,1.05,.51,.29,.3,.47,.7,.56,1.2l-.69-.07c-.06-.28-.16-.49-.31-.65-.16-.18-.36-.28-.6-.3-.27-.03-.49,.05-.65,.24-.11,.12-.18,.29-.21,.5-.03,.21-.05,.56-.04,1.06,0,.52,.03,.88,.06,1.08,.04,.2,.11,.38,.23,.53,.17,.22,.39,.34,.66,.36,.24,.02,.44-.04,.59-.18,.15-.14,.25-.35,.3-.61l.68,.06Z" style="fill: #fff;"/>
      <path d="M67.57,164.96l-.72-.06-.31-1.02-1.76-.15-.3,.98-.72-.06,1.57-4.87,.54,.05,1.7,5.12Zm-1.24-1.73l-.7-2.28-.66,2.16,1.37,.12Z" style="fill: #fff;"/>
      <path d="M71.46,165.25l-.79-.06-.96-2.14-.85-.07,.03,2.08-.68-.05-.06-4.95,1.73,.17c.42,.04,.75,.21,1.01,.49,.26,.29,.39,.64,.39,1.07,0,.33-.07,.61-.24,.82-.16,.21-.37,.35-.64,.4l1.06,2.25Zm-.86-3.52c0-.24-.07-.43-.21-.58-.14-.15-.32-.24-.55-.26l-1-.09,.02,1.55,1,.09c.23,.02,.41-.03,.55-.16,.14-.12,.21-.31,.2-.54Z" style="fill: #fff;"/>
      <path d="M78.55,161.05l-1.1,4.65-.59-.04-.96-3.42-.86,3.29-.59-.04-1.23-4.93,.71,.07,.82,3.52,.85-3.36,.55,.05,.94,3.5,.73-3.34,.71,.06Z" style="fill: #fff;"/>
      <path d="M82.55,166.06l-.72-.05-.31-.96-1.76-.13-.3,.92-.72-.05,1.57-4.58,.54,.05,1.7,4.8Zm-1.24-1.62l-.7-2.14-.66,2.03,1.37,.1Z" style="fill: #fff;"/>
      <path d="M85.95,164.98c0,.42-.14,.73-.43,.95-.29,.22-.68,.32-1.16,.28-.34-.02-.64-.09-.89-.2-.25-.11-.48-.28-.7-.52l.44-.43c.16,.17,.33,.3,.52,.38,.19,.08,.4,.13,.63,.15,.29,.02,.52-.03,.68-.14,.16-.11,.24-.28,.23-.5,0-.21-.06-.38-.18-.49-.06-.06-.12-.1-.19-.14-.07-.04-.17-.07-.3-.09l-.53-.12c-.36-.08-.65-.23-.85-.44-.22-.23-.33-.53-.34-.91,0-.41,.12-.73,.39-.95,.26-.23,.62-.32,1.08-.28,.56,.05,1.02,.26,1.39,.64l-.43,.4c-.13-.14-.28-.24-.44-.31-.16-.07-.34-.11-.54-.13-.25-.02-.45,.03-.59,.15-.14,.12-.21,.29-.21,.5,0,.18,.06,.33,.18,.45,.12,.12,.28,.2,.5,.25l.51,.12c.2,.05,.37,.1,.49,.16,.13,.06,.24,.15,.34,.24,.25,.24,.37,.56,.38,.97Z" style="fill: #fff;"/>
      <path d="M90.04,166.56l-.68-.04-.03-1.97-1.81-.13,.03,1.99-.68-.04-.07-4.57,.68,.06,.03,1.95,1.81,.14-.03-1.93,.68,.06,.07,4.5Z" style="fill: #fff;"/>
    </g>
    <path d="M16.05,159.01c-.28-12.93-4.68-18.35-16.05-19.79,11.37,1.44,15.56-2.9,15.27-15.83,.28,12.93,4.68,18.34,16.06,19.78-11.37-1.43-15.56,2.9-15.27,15.84Z" style="fill: #e60012; fill-rule: evenodd;"/>
  </g>
  <g>
    <path d="M82.46,11.41c-5.12-.72-9.86-.04-14.48,.86,23,7.05,34.2,6.16,50.8,12.88-16.67-8.23-23.13-11.89-36.32-13.74Zm-38.53-2.27c2.39-1.11,5.36,1.59,7-1.91,5.51,.14,10.98,3.31,16.06,3.94,17.24-3.2,24.41-.2,41.75,7.79-16.95-9.67-24.66-13.14-42.11-9.5-9.56-2.11-16.19-6.57-24.93-1.4-.21,.13-.34,.27-.4,.43l2.63,.64Z" style="fill: #231815; fill-rule: evenodd;"/>
    <path d="M84.11,59.84l-.02,2.3-49.67,.26L63.43,25.08l-22.32-3.61c2.76-3.5,7.39-4.51,14.39-3.53-6.92-.97-11.57-3.24-14.42-7.43l3.15,.65,41.85,8.64-22.9,32.26,14.35,.58c4.1,.8,6.07,2.96,6.57,7.21Z" style="fill: #231815;"/>
    <path d="M95.92,53.81c-6.5-.45-8.92,1.83-8.83,8.32h3.15s9.16-.06,9.16-.06l-.02-18.16,.19,.02,8.96,18.09,10.46-.05-7.89-16.81c.5-.17,.97-.36,1.4-.58,.43-.22,.83-.47,1.2-.74,.37-.27,.71-.57,1.01-.9,.31-.33,.58-.68,.83-1.06,.24-.38,.46-.77,.64-1.16,.18-.39,.33-.79,.45-1.19,.12-.4,.21-.81,.27-1.23,.06-.42,.08-.84,.08-1.27,0-.84-.09-1.65-.26-2.43-.17-.78-.41-1.53-.75-2.25-.33-.72-.74-1.42-1.24-2.09-.5-.67-1.09-1.32-1.76-1.94-.68-.63-1.42-1.21-2.24-1.74-.82-.54-1.71-1.03-2.68-1.48-.97-.45-2.02-.86-3.15-1.22-1.14-.37-2.37-.68-3.68-.95l-5.18-1.07-8.89-1.84-.1,26.94c.74,4.53,3.36,6.48,8.87,6.86Zm5.33-23.31c.57,.15,1.09,.32,1.57,.5,.47,.18,.89,.37,1.26,.58,.37,.21,.7,.43,.97,.66,.28,.23,.52,.49,.73,.78,.21,.28,.38,.59,.52,.93,.14,.33,.24,.69,.31,1.08,.07,.38,.11,.8,.11,1.24,0,.65-.14,1.19-.44,1.65-.29,.45-.74,.81-1.33,1.07-.6,.26-1.36,.43-2.28,.5-.93,.07-2.02,.04-3.29-.08v-9.33c.67,.13,1.3,.27,1.87,.42Z" style="fill: #231815;"/>
    <path d="M37.07,30.67c-.12-11.14-3.78-15.84-13.35-17.18,9.57,1.34,13.13-2.35,13.01-13.49,.12,11.13,3.78,15.84,13.35,17.17-9.57-1.34-13.14,2.36-13.02,13.49Z" style="fill: #e60012; fill-rule: evenodd;"/>
    <polygon points="57.32 42.46 57.32 35.33 99.59 40.05 99.59 45.14 57.32 42.46" style="fill: #231815;"/>
    <g>
      <path d="M61.62,40.23c0,.42-.12,.73-.36,.95-.25,.22-.58,.31-.99,.27-.29-.03-.54-.1-.76-.21-.21-.11-.41-.29-.59-.53l.38-.43c.13,.17,.28,.3,.44,.38,.16,.08,.34,.13,.54,.15,.25,.02,.44-.02,.58-.13,.14-.11,.2-.28,.2-.5,0-.21-.05-.37-.16-.49-.05-.06-.1-.1-.16-.14-.06-.04-.15-.07-.26-.1l-.45-.12c-.31-.08-.55-.23-.72-.44-.19-.23-.28-.54-.29-.91,0-.41,.1-.72,.33-.95,.22-.22,.53-.31,.92-.27,.48,.05,.87,.27,1.19,.65l-.36,.4c-.11-.14-.24-.25-.37-.31-.14-.07-.29-.11-.46-.13-.22-.02-.39,.03-.51,.15-.12,.12-.18,.29-.18,.5,0,.18,.05,.33,.15,.45,.1,.12,.24,.2,.43,.25l.43,.12c.17,.05,.31,.1,.42,.17,.11,.06,.21,.15,.29,.25,.21,.24,.32,.56,.32,.97Z" style="fill: #fff;"/>
      <path d="M64.84,41.82l-2.43-.22-.06-4.56,2.43,.26v.62s-1.84-.2-1.84-.2l.02,1.33,1.58,.16v.61s-1.57-.15-1.57-.15l.02,1.37,1.85,.17v.61Z" style="fill: #fff;"/>
      <path d="M68.03,42.1l-2.41-.21-.06-4.5,.58,.06,.05,3.88,1.83,.16v.61Z" style="fill: #fff;"/>
      <path d="M71.07,38.57l-1.85-.19,.02,1.35,1.58,.15v.6s-1.57-.15-1.57-.15l.02,1.87-.58-.05-.06-4.44,2.43,.25v.6Z" style="fill: #fff;"/>
      <path d="M75.66,41.45c-.06,.42-.21,.73-.45,.94-.24,.21-.54,.3-.89,.27-.39-.03-.73-.21-1-.54-.17-.21-.28-.46-.33-.74-.03-.18-.05-.52-.06-1.04,0-.51,0-.85,.03-1.02,.04-.28,.15-.51,.32-.69,.27-.28,.6-.4,.99-.36,.36,.04,.65,.18,.9,.44,.24,.25,.4,.59,.47,1.02l-.59-.06c-.05-.23-.14-.42-.26-.56-.14-.15-.31-.24-.51-.26-.23-.02-.42,.05-.56,.21-.09,.1-.15,.25-.18,.43-.03,.18-.04,.48-.03,.9,0,.44,.02,.75,.05,.92,.03,.17,.09,.32,.19,.45,.14,.19,.33,.29,.56,.31,.21,.02,.37-.03,.5-.16,.13-.12,.22-.29,.26-.52l.58,.05Z" style="fill: #fff;"/>
      <path d="M79.24,43.01l-.61-.05-.27-.87-1.5-.12-.25,.84-.61-.05,1.34-4.15,.46,.05,1.45,4.36Zm-1.06-1.48l-.6-1.94-.57,1.84,1.16,.1Z" style="fill: #fff;"/>
      <path d="M82.54,43.27l-.67-.05-.82-1.83-.72-.06,.02,1.77-.58-.04-.06-4.21,1.47,.14c.36,.03,.64,.17,.86,.42,.22,.24,.33,.55,.33,.91,0,.28-.06,.52-.2,.7-.14,.18-.32,.3-.54,.34l.9,1.91Zm-.73-3c0-.2-.06-.37-.18-.5-.12-.13-.28-.2-.47-.22l-.85-.08,.02,1.32,.85,.08c.19,.02,.35-.03,.46-.13,.12-.11,.17-.26,.17-.46Z" style="fill: #fff;"/>
      <path d="M88.58,39.68l-.94,3.96-.5-.04-.81-2.91-.73,2.8-.5-.04-1.05-4.2,.61,.06,.7,3,.72-2.87,.46,.04,.8,2.98,.62-2.85,.61,.06Z" style="fill: #fff;"/>
      <path d="M91.99,43.95l-.61-.04-.27-.82-1.5-.11-.25,.79-.61-.04,1.34-3.9,.46,.04,1.45,4.09Zm-1.06-1.38l-.6-1.82-.57,1.73,1.16,.09Z" style="fill: #fff;"/>
      <path d="M94.88,43.04c0,.35-.12,.63-.36,.81-.25,.19-.58,.27-.99,.24-.29-.02-.54-.08-.76-.17-.21-.09-.41-.24-.59-.44l.38-.37c.13,.15,.28,.25,.44,.32,.16,.07,.34,.11,.54,.12,.25,.02,.44-.02,.58-.12,.14-.09,.2-.24,.2-.43,0-.18-.05-.32-.16-.42-.05-.05-.1-.09-.16-.12-.06-.03-.15-.06-.26-.08l-.45-.1c-.31-.07-.55-.19-.72-.37-.19-.2-.28-.46-.29-.78,0-.35,.11-.62,.33-.81,.22-.19,.53-.27,.92-.24,.48,.04,.87,.23,1.19,.55l-.36,.34c-.11-.12-.24-.21-.37-.27-.14-.06-.29-.09-.46-.11-.22-.02-.39,.02-.51,.13-.12,.11-.18,.25-.18,.42,0,.16,.05,.28,.15,.38,.1,.1,.24,.17,.43,.21l.43,.1c.17,.04,.31,.09,.42,.14,.11,.05,.21,.12,.29,.21,.21,.2,.32,.48,.32,.82Z" style="fill: #fff;"/>
      <path d="M98.37,44.38l-.58-.04-.02-1.68-1.54-.12,.02,1.69-.58-.04-.06-3.89,.58,.05,.02,1.66,1.54,.12-.02-1.64,.58,.05,.06,3.84Z" style="fill: #fff;"/>
    </g>
  </g>
</svg>